<?xml version="1.0" encoding="utf-8"?>
<!-- Generator: Adobe Illustrator 16.0.0, SVG Export Plug-In . SVG Version: 6.00 Build 0)  -->
<!DOCTYPE svg PUBLIC "-//W3C//DTD SVG 1.1//EN" "http://www.w3.org/Graphics/SVG/1.1/DTD/svg11.dtd">
<svg version="1.1" id="Layer_1" xmlns="http://www.w3.org/2000/svg" xmlns:xlink="http://www.w3.org/1999/xlink" x="0px" y="0px"
	 width="268px" height="262px" viewBox="0 0 268 262" enable-background="new 0 0 268 262" xml:space="preserve">
<g>
	<path fill-rule="evenodd" clip-rule="evenodd" d="M56.542,249.814c9.875-30.385,19.683-60.566,29.534-90.882
		C60.401,140.282,34.701,121.613,9,102.943c0.017-0.066,0.031-0.133,0.048-0.199c0.399,0,0.798,0,1.196,0
		c30.973,0,61.943-0.005,92.916,0.022c0.928,0.001,1.278-0.267,1.563-1.152c9.553-29.473,19.139-58.937,28.72-88.401
		c0.107-0.327,0.222-0.652,0.556-1.027c9.801,30.155,19.603,60.311,29.429,90.543c31.767,0,63.523,0,95.572,0
		c-0.531,0.411-0.837,0.662-1.155,0.894c-25.101,18.237-50.201,36.475-75.316,54.688c-0.646,0.467-0.786,0.836-0.539,1.597
		c9.615,29.527,19.208,59.062,28.803,88.595c0.117,0.357,0.224,0.719,0.408,1.307c-2.76-2-5.333-3.863-7.905-5.729
		c-22.879-16.618-45.761-33.234-68.621-49.878c-0.718-0.524-1.111-0.315-1.697,0.111c-25.123,18.266-50.254,36.519-75.386,54.771
		C57.311,249.287,57.023,249.479,56.542,249.814z M133.626,143.51c-0.017-0.118-0.035-0.234-0.052-0.352
		c0.103-0.375,0.299-0.752,0.299-1.127c0.013-38.9,0.013-77.8,0.013-116.701c0-0.319,0-0.64,0-0.96
		c-0.247,0.215-0.335,0.434-0.406,0.656c-8.715,26.821-17.423,53.644-26.159,80.457c-0.238,0.729-0.129,1.215,0.297,1.801
		c8.377,11.495,16.738,23.004,25.096,34.513c0.32,0.443,0.589,0.923,0.886,1.388c-0.262-0.045-0.537-0.06-0.789-0.142
		c-6.477-2.094-12.951-4.189-19.424-6.293c-30.317-9.854-60.635-19.713-90.95-29.566c-0.54-0.176-1.087-0.324-1.63-0.484
		c0.223,0.392,0.515,0.626,0.816,0.846c11,7.992,22.001,15.985,33.002,23.977c11.675,8.48,23.354,16.959,35.02,25.457
		c0.564,0.409,1.046,0.497,1.713,0.271c2.563-0.875,5.147-1.689,7.723-2.527c11.523-3.749,23.049-7.499,34.573-11.247
		c-0.237,0.411-0.438,0.848-0.716,1.229c-22.792,31.374-45.589,62.742-68.385,94.113c-0.214,0.293-0.405,0.601-0.607,0.902
		c3.313-2.224,6.512-4.548,9.71-6.873c19.81-14.388,39.616-28.777,59.432-43.158c0.505-0.365,0.821-0.695,0.82-1.407
		c-0.028-14.613-0.019-29.228-0.032-43.841C133.874,144.13,133.71,143.821,133.626,143.51z M134.229,143.517
		c-0.05,0.051-0.1,0.103-0.151,0.152c23.257,32.003,46.513,64.005,69.77,96.006c0.071-0.342,0.012-0.609-0.073-0.868
		c-8.708-26.792-17.42-53.584-26.112-80.382c-0.218-0.668-0.557-0.999-1.227-1.214c-8.034-2.587-16.058-5.211-24.085-7.819
		C146.313,147.431,140.271,145.475,134.229,143.517z M134.122,143.083c0.036,0.071,0.072,0.145,0.109,0.216
		c37.585-12.209,75.17-24.418,112.755-36.627c-0.012-0.069-0.023-0.139-0.035-0.208c-0.304,0-0.607,0-0.911,0
		c-28.11,0-56.221,0.004-84.329-0.018c-0.757-0.001-1.177,0.265-1.604,0.857c-6.032,8.34-12.088,16.663-18.14,24.987
		C139.352,135.889,136.736,139.485,134.122,143.083z"/>
	<path fill-rule="evenodd" clip-rule="evenodd" fill="#color1#" d="M133.596,143.181c-0.294-0.461-0.563-0.94-0.883-1.384
		c-8.357-11.509-16.719-23.018-25.096-34.513c-0.426-0.586-0.535-1.072-0.297-1.801c8.736-26.813,17.444-53.636,26.159-80.457
		c0.071-0.223,0.159-0.441,0.406-0.656c0,0.32,0,0.641,0,0.96c0,38.901,0,77.801-0.013,116.701c0,0.375-0.196,0.752-0.299,1.128
		C133.576,143.159,133.596,143.181,133.596,143.181z"/>
	<path fill-rule="evenodd" clip-rule="evenodd" fill="#color2#" d="M133.624,143.511c0.086,0.311,0.25,0.619,0.25,0.93
		c0.014,14.613,0.004,29.228,0.032,43.841c0.001,0.712-0.315,1.042-0.82,1.407c-19.815,14.381-39.622,28.771-59.432,43.158
		c-3.198,2.325-6.396,4.649-9.71,6.873c0.202-0.302,0.394-0.609,0.607-0.902c22.796-31.371,45.593-62.739,68.385-94.113
		c0.277-0.382,0.479-0.818,0.716-1.229L133.624,143.511z"/>
	<path fill-rule="evenodd" clip-rule="evenodd" fill="#color3#" d="M134.229,143.517c6.041,1.958,12.083,3.914,18.121,5.875
		c8.027,2.608,16.051,5.232,24.085,7.819c0.67,0.215,1.009,0.546,1.227,1.214c8.692,26.798,17.404,53.59,26.112,80.382
		c0.085,0.259,0.145,0.526,0.073,0.868c-23.257-32.001-46.513-64.003-69.77-96.006C134.13,143.619,134.18,143.567,134.229,143.517z"
		/>
	<path fill-rule="evenodd" clip-rule="evenodd" fill="#color4#" d="M133.652,143.475c-11.524,3.748-23.05,7.498-34.573,11.247
		c-2.575,0.838-5.159,1.652-7.723,2.527c-0.667,0.227-1.148,0.139-1.713-0.271c-11.665-8.498-23.345-16.977-35.02-25.457
		c-11.001-7.991-22.002-15.984-33.002-23.977c-0.302-0.22-0.594-0.454-0.816-0.846c0.543,0.16,1.09,0.309,1.63,0.484
		c30.315,9.854,60.633,19.712,90.95,29.566c6.473,2.104,12.947,4.199,19.424,6.293c0.252,0.082,0.527,0.097,0.788,0.14
		c-0.002-0.002-0.021-0.023-0.023-0.023c0.017,0.116,0.035,0.232,0.05,0.351C133.624,143.511,133.652,143.475,133.652,143.475z"/>
	<path fill-rule="evenodd" clip-rule="evenodd" fill="#color5#" d="M134.122,143.083c2.614-3.598,5.229-7.194,7.845-10.792
		c6.052-8.324,12.107-16.647,18.14-24.987c0.428-0.593,0.848-0.858,1.604-0.857c28.108,0.021,56.219,0.018,84.329,0.018
		c0.304,0,0.607,0,0.911,0c0.012,0.069,0.023,0.139,0.035,0.208c-37.585,12.209-75.17,24.418-112.755,36.627
		C134.194,143.228,134.158,143.154,134.122,143.083z"/>
</g>
</svg>
