<?xml version="1.0" encoding="utf-8"?>
<!-- Generator: Adobe Illustrator 16.0.0, SVG Export Plug-In . SVG Version: 6.00 Build 0)  -->
<!DOCTYPE svg PUBLIC "-//W3C//DTD SVG 1.1//EN" "http://www.w3.org/Graphics/SVG/1.1/DTD/svg11.dtd">
<svg version="1.1" id="Layer_1" xmlns="http://www.w3.org/2000/svg" xmlns:xlink="http://www.w3.org/1999/xlink" x="0px" y="0px"
	 width="41.364px" height="41.364px" viewBox="0 0 41.364 41.364" enable-background="new 0 0 41.364 41.364" xml:space="preserve">
<g>
	<path fill="#FFDE17" d="M35.156,15.664L15.66,35.156l6.204,6.208c0,0,6.936-2.505,12.884-8.451s6.616-11.042,6.616-11.042
		L35.156,15.664z M23.075,35.705l-0.374,2.328l-1.07-2.101l-2.325,0.368l1.669-1.666l-1.073-2.101l2.104,1.07l1.666-1.672
		l-0.375,2.341l2.107,1.058L23.075,35.705z M29.397,29.391l-0.382,2.328l-1.07-2.101l-2.328,0.367l1.673-1.665l-1.063-2.104
		l2.094,1.074l1.659-1.666l-0.361,2.321l2.1,1.07L29.397,29.391z M35.337,25.4l-1.07-2.101l-2.321,0.364l1.659-1.662l-1.07-2.101
		l2.094,1.073l1.68-1.672l-0.375,2.331l2.101,1.067l-2.328,0.371L35.337,25.4z"/>
	<polygon fill="#1C75BC" points="29.979,25.624 28.32,27.29 26.227,26.216 27.29,28.32 25.617,29.985 27.945,29.618 29.016,31.719 
		29.397,29.391 31.718,29.016 29.618,27.945 	"/>
	<polygon fill="#00A651" points="35.933,21.634 36.308,19.303 34.628,20.975 32.534,19.901 33.604,22.002 31.945,23.664 
		34.267,23.3 35.337,25.4 35.705,23.072 38.033,22.701 	"/>
	<polygon fill="#ED1C24" points="23.671,31.933 22.005,33.604 19.901,32.534 20.975,34.635 19.306,36.301 21.631,35.933 
		22.701,38.033 23.075,35.705 25.403,35.331 23.296,34.273 	"/>
	<polygon fill="#FFDE17" points="24.406,24.396 34.146,14.653 26.715,0 23.791,11.8 7.241,7.235 7.238,7.238 11.8,23.788 0,26.715 
		14.657,34.146 24.399,24.4 	"/>
</g>
</svg>
