<?xml version="1.0" encoding="utf-8"?>
<!-- Generator: Adobe Illustrator 16.0.0, SVG Export Plug-In . SVG Version: 6.00 Build 0)  -->
<!DOCTYPE svg PUBLIC "-//W3C//DTD SVG 1.1//EN" "http://www.w3.org/Graphics/SVG/1.1/DTD/svg11.dtd">
<svg version="1.1" id="Layer_1" xmlns="http://www.w3.org/2000/svg" xmlns:xlink="http://www.w3.org/1999/xlink" x="0px" y="0px"
	 width="150px" height="150.014px" viewBox="0 0 150 150.014" enable-background="new 0 0 150 150.014" xml:space="preserve">
<g>
	<path fill="#FFFFFF" d="M95.25,53.757h-40.5c-0.552,0-1,0.448-1,1v40.5c0,0.551,0.448,1,1,1h40.5c0.551,0,1-0.449,1-1v-40.5
		C96.25,54.205,95.801,53.757,95.25,53.757z M91.281,80.007H79.906v11.375h-10V80.007H58.219v-10h11.688V58.632h10v11.375h11.375
		V80.007z"/>
	<path fill="#FF0000" d="M95.25,43.757h-40.5c-6.065,0-11,4.935-11,11v40.5c0,6.065,4.935,11,11,11h40.5c6.065,0,11-4.935,11-11
		v-40.5C106.25,48.692,101.315,43.757,95.25,43.757z M96.25,95.257c0,0.551-0.449,1-1,1h-40.5c-0.552,0-1-0.449-1-1v-40.5
		c0-0.552,0.448-1,1-1h40.5c0.551,0,1,0.448,1,1V95.257z"/>
	<polygon fill="#FF0000" points="79.906,58.632 69.906,58.632 69.906,70.007 58.219,70.007 58.219,80.007 69.906,80.007 
		69.906,91.382 79.906,91.382 79.906,80.007 91.281,80.007 91.281,70.007 79.906,70.007 	"/>
</g>
</svg>
