<?xml version="1.0" encoding="utf-8"?>
<!-- Generator: Adobe Illustrator 16.0.0, SVG Export Plug-In . SVG Version: 6.00 Build 0)  -->
<!DOCTYPE svg PUBLIC "-//W3C//DTD SVG 1.1//EN" "http://www.w3.org/Graphics/SVG/1.1/DTD/svg11.dtd">
<svg version="1.1" id="Layer_1" xmlns="http://www.w3.org/2000/svg" xmlns:xlink="http://www.w3.org/1999/xlink" x="0px" y="0px"
	 width="150px" height="150.014px" viewBox="-54.319 -54.325 150 150.014" enable-background="new -54.319 -54.325 150 150.014"
	 xml:space="preserve">
<path fill="#919191" d="M-21.054,39.481l2.775-18.876l32.944,16.659v26.092l6.208,9.814l6.375-9.26V37.448l34.058-17.766v19.986
	l-27.574,6.756c0,0,2.775,22.674,2.401,33.958c-0.368,11.29-1.206,12.965-1.206,12.965l47.294-22.032c0,0-4.629-13.445-4.813-28.472
	c-0.193-15.016,1.292-28.157-1.112-44.813c-2.411-16.659-16.476-50.526-54.416-50.526c-37.939,0-52,31.275-56.999,49.044
	c-4.996,17.766,2.408,33.022,0,45.007c-2.408,11.992-5.738,28.462-5.738,28.462l51.268,23.68L9.111,47.072L-21.054,39.481z"/>
</svg>
