<?xml version="1.0" encoding="utf-8"?>
<!-- Generator: Adobe Illustrator 16.0.0, SVG Export Plug-In . SVG Version: 6.00 Build 0)  -->
<!DOCTYPE svg PUBLIC "-//W3C//DTD SVG 1.1//EN" "http://www.w3.org/Graphics/SVG/1.1/DTD/svg11.dtd">
<svg version="1.1" id="Layer_1" xmlns="http://www.w3.org/2000/svg" xmlns:xlink="http://www.w3.org/1999/xlink" x="0px" y="0px"
	 width="150px" height="150.014px" viewBox="0 0 150 150.014" enable-background="new 0 0 150 150.014" xml:space="preserve">
<g>
	<path fill="#919191" d="M35.279,93.888l2.775-18.876l32.944,16.66v26.092l6.208,9.814l6.375-9.26V91.855l34.058-17.766v19.987
		l-27.574,6.756c0,0,2.774,22.674,2.401,33.957c-0.368,11.291-1.207,12.965-1.207,12.965l47.295-22.031
		c0,0-4.629-13.445-4.813-28.473c-0.193-15.016,1.291-28.157-1.113-44.813c-2.41-16.658-16.476-50.525-54.416-50.525
		c-37.938,0-52,31.274-56.999,49.044c-4.996,17.766,2.408,33.021,0,45.007c-2.408,11.992-5.738,28.461-5.738,28.461l51.268,23.68
		l-1.3-46.625L35.279,93.888z"/>
	<path d="M67.267,148.895l-52.359-24.184l0.078-0.387c0-0.001,3.33-16.469,5.738-28.461c1.005-5.005,0.253-10.735-0.543-16.803
		c-1.103-8.397-2.352-17.916,0.552-28.241c5.191-18.453,19.562-49.409,57.48-49.409c37.604,0,52.361,33.33,54.911,50.954
		c1.683,11.661,1.462,21.818,1.249,31.641c-0.093,4.28-0.189,8.706-0.131,13.237c0.181,14.776,4.739,28.183,4.785,28.316
		l0.146,0.426L90.17,148.813l0.643-1.283c0.027-0.063,0.802-1.95,1.154-12.758c0.368-11.116-2.37-33.653-2.397-33.88l-0.054-0.44
		l27.624-6.769v-18.77L84.082,92.157v26.315l-6.893,10.012l-6.691-10.577V91.979l-32.05-16.208L35.84,93.513l30.094,7.572
		L67.267,148.895z M16.045,124.135l50.177,23.176l-1.267-45.44l-30.236-7.607l2.942-20.011l33.837,17.111v26.255l5.726,9.052
		l5.857-8.508v-26.61l0.269-0.141l34.789-18.147v21.204l-27.525,6.743c0.383,3.227,2.693,23.27,2.353,33.594
		c-0.236,7.233-0.662,10.559-0.955,12.046l45.93-21.395c-0.781-2.423-4.535-14.755-4.699-28.201
		c-0.059-4.548,0.038-8.983,0.131-13.271c0.223-10.232,0.433-19.897-1.239-31.476C129.627,35.18,115.131,2.411,78.213,2.411
		c-37.259,0-51.403,30.499-56.517,48.679c-2.849,10.128-1.613,19.539-0.523,27.841c0.808,6.151,1.57,11.962,0.532,17.13
		C19.514,106.971,16.561,121.585,16.045,124.135z"/>
</g>
</svg>
