<?xml version="1.0" encoding="utf-8"?>
<!-- Generator: Adobe Illustrator 16.0.0, SVG Export Plug-In . SVG Version: 6.00 Build 0)  -->
<!DOCTYPE svg PUBLIC "-//W3C//DTD SVG 1.1//EN" "http://www.w3.org/Graphics/SVG/1.1/DTD/svg11.dtd">
<svg version="1.1" id="Layer_1" xmlns="http://www.w3.org/2000/svg" xmlns:xlink="http://www.w3.org/1999/xlink" x="0px" y="0px"
	 width="41.363px" height="41.364px" viewBox="0 0 41.363 41.364" enable-background="new 0 0 41.363 41.364" xml:space="preserve">
<path fill="#919191" d="M9.154,25.816l0.767-5.214l9.099,4.601v7.208l1.715,2.71l1.761-2.557v-7.309l9.407-4.908v5.52l-7.616,1.867
	c0,0,0.766,6.263,0.663,9.38c-0.102,3.118-0.333,3.581-0.333,3.581l13.063-6.086c0,0-1.278-3.714-1.329-7.864
	c-0.053-4.148,0.357-7.778-0.307-12.379C35.378,9.765,31.493,0.41,21.013,0.41C10.534,0.41,6.65,9.049,5.269,13.957
	c-1.38,4.907,0.665,9.122,0,12.432c-0.665,3.312-1.585,7.862-1.585,7.862l14.161,6.54l-0.359-12.879L9.154,25.816z"/>
</svg>
