<?xml version="1.0" encoding="utf-8"?>
<!-- Generator: Adobe Illustrator 16.0.0, SVG Export Plug-In . SVG Version: 6.00 Build 0)  -->
<!DOCTYPE svg PUBLIC "-//W3C//DTD SVG 1.1//EN" "http://www.w3.org/Graphics/SVG/1.1/DTD/svg11.dtd">
<svg version="1.1" id="Layer_1" xmlns="http://www.w3.org/2000/svg" xmlns:xlink="http://www.w3.org/1999/xlink" x="0px" y="0px"
	 width="41.363px" height="41.364px" viewBox="0 0 41.363 41.364" enable-background="new 0 0 41.363 41.364" xml:space="preserve">
<g>
	<path fill="#F9BD00" d="M26.599,20.682c0-2.612-1.694-4.824-4.042-5.609V7.369h2.291V6.161h-2.291V5.494h2.291V4.286h-2.291V3.619
		h2.291V2.411h-8.333v1.208h2.292v0.667h-2.292v1.208h2.292v0.667h-2.292v1.208h2.292v7.704c-2.348,0.785-4.042,2.997-4.042,5.609
		c0,2.611,1.694,4.824,4.042,5.608v4.415l-1.541,2.502v1.19v0.852v3.517h1.541v0.415h-1.541v0.668h1.541v0.363h-1.541v0.668h6.832
		v-0.668h-1.541v-0.363h1.541v-0.668h-1.541v-0.415h1.541V35.25v-0.852v-1.19l-1.541-2.502v-4.415
		C24.905,25.506,26.599,23.293,26.599,20.682z M17.599,20.682c0-1.703,1.38-3.083,3.083-3.083s3.083,1.38,3.083,3.083
		s-1.38,3.083-3.083,3.083S17.599,22.385,17.599,20.682z"/>
</g>
</svg>
