<?xml version="1.0" encoding="utf-8"?>
<!-- Generator: Adobe Illustrator 16.0.0, SVG Export Plug-In . SVG Version: 6.00 Build 0)  -->
<!DOCTYPE svg PUBLIC "-//W3C//DTD SVG 1.1//EN" "http://www.w3.org/Graphics/SVG/1.1/DTD/svg11.dtd">
<svg version="1.1" id="Layer_1" xmlns="http://www.w3.org/2000/svg" xmlns:xlink="http://www.w3.org/1999/xlink" x="0px" y="0px"
	 width="72px" height="72px" viewBox="0 0 72 72" enable-background="new 0 0 72 72" xml:space="preserve">
<circle fill="#58595B" cx="36" cy="36" r="26"/>
<rect x="10" y="22.328" fill="purple" width="52" height="15.922"/>
<g>
	<g>
		<path id="col1" fill="none" d="M36,12.581c-7.798,0-14.669,3.869-18.927,9.748h37.86C50.671,16.449,43.797,12.581,36,12.581z"/>
		<path fill="#231F20" d="M65.116,22.328C59.954,11.375,48.89,3.729,36,3.729c-12.889,0-23.955,7.646-29.119,18.599
			C4.914,26.494,3.729,31.093,3.729,36c0,1.89,0.247,3.713,0.558,5.511C6.92,56.677,20.094,68.271,36,68.271
			c15.907,0,29.081-11.594,31.708-26.76c0.313-1.798,0.563-3.621,0.563-5.511C68.271,31.093,67.085,26.494,65.116,22.328z
			 M36,59.417c-11.004,0-20.199-7.657-22.693-17.906c-0.432-1.777-0.726-3.605-0.726-5.511c0-5.113,1.694-9.817,4.491-13.672
			c4.258-5.879,11.129-9.748,18.927-9.748c7.797,0,14.671,3.869,18.933,9.748c2.792,3.854,4.484,8.559,4.484,13.672
			c0,1.905-0.292,3.733-0.725,5.511C56.193,51.76,47.005,59.417,36,59.417z"/>
	</g>
	<g>
		<rect x="18.65" y="28.056" fill="#FFFFFF" width="9.406" height="3.863"/>
		<path fill="#00AEEF" d="M26.672,29.988c0,1.828-1.486,3.314-3.319,3.314c-1.833,0-3.311-1.486-3.311-3.314
			c0-1.83,1.478-3.316,3.311-3.316C25.186,26.672,26.672,28.158,26.672,29.988z"/>
		<path fill="#231F20" d="M28.056,28.056v3.863H18.65v-3.863H28.056 M30.269,25.843h-2.213H18.65h-2.213v2.213v3.863v2.215h2.213
			h9.406h2.213v-2.215v-3.863V25.843L30.269,25.843z"/>
		<rect x="43.944" y="28.056" fill="#FFFFFF" width="9.406" height="3.863"/>
		<path fill="#00AEEF" d="M51.958,29.988c0,1.828-1.478,3.314-3.312,3.314c-1.832,0-3.318-1.486-3.318-3.314
			c0-1.83,1.486-3.316,3.318-3.316C50.48,26.672,51.958,28.158,51.958,29.988z"/>
		<path fill="#231F20" d="M53.351,28.056v3.863h-9.406v-3.863H53.351 M55.563,25.843h-2.212h-9.406h-2.213v2.213v3.863v2.215h2.213
			h9.406h2.212v-2.215v-3.863V25.843L55.563,25.843z"/>
	</g>
</g>
</svg>
