<?xml version="1.0" encoding="utf-8"?>
<!-- Generator: Adobe Illustrator 16.0.0, SVG Export Plug-In . SVG Version: 6.00 Build 0)  -->
<!DOCTYPE svg PUBLIC "-//W3C//DTD SVG 1.1//EN" "http://www.w3.org/Graphics/SVG/1.1/DTD/svg11.dtd">
<svg version="1.1" id="Layer_1" xmlns="http://www.w3.org/2000/svg" xmlns:xlink="http://www.w3.org/1999/xlink" x="0px" y="0px"
	 width="41.363px" height="41.364px" viewBox="0 0 41.363 41.364" enable-background="new 0 0 41.363 41.364" xml:space="preserve">
<g>
	<path fill="#727272" d="M0.516,35.968c0,0,12.093,4.527,21.11,4.703c9.018,0.178,19.773-4.551,19.773-4.551
		s-11.772-6.291-21.295-5.71C10.582,30.991,0.516,35.968,0.516,35.968z"/>
	<path fill="#919191" d="M4.763,34.145c0,0,1.702-15.72,14.535-16.826c12.832-1.105,16.783,16.398,16.783,16.398
		s-8.631,3.563-15.458,3.353C13.795,36.858,4.763,34.145,4.763,34.145z"/>
	<path fill="#FFDE17" d="M9.184,29.692l-4.566-5.974c0,0-3.065,4.175-4.585,4.025c3.497,2.415,5.45-0.018,5.45-0.018l2.82,2.84
		L9.184,29.692z"/>
	<path fill="#FFDE17" d="M31.635,29.559l4.217-6.225c0,0,3.298,3.996,4.807,3.759c-3.355,2.611-5.443,0.292-5.443,0.292
		l-2.653,2.995L31.635,29.559z"/>
</g>
</svg>
