<?xml version="1.0" encoding="utf-8"?>
<!-- Generator: Adobe Illustrator 16.0.0, SVG Export Plug-In . SVG Version: 6.00 Build 0)  -->
<!DOCTYPE svg PUBLIC "-//W3C//DTD SVG 1.1//EN" "http://www.w3.org/Graphics/SVG/1.1/DTD/svg11.dtd">
<svg version="1.1" id="Layer_1" xmlns="http://www.w3.org/2000/svg" xmlns:xlink="http://www.w3.org/1999/xlink" x="0px" y="0px"
	 width="150px" height="150.014px" viewBox="0 0 150 150.014" enable-background="new 0 0 150 150.014" xml:space="preserve">
<g>
	<path fill="#919191" d="M22.112,106.077c0.562,0.165,1.689,0.49,3.252,0.921c0.102,0.028,0.197,0.055,0.302,0.083
		c0.069,0.02,0.146,0.04,0.216,0.06c0.237,0.064,0.476,0.13,0.729,0.198c0.035,0.01,0.073,0.02,0.108,0.029
		c0.292,0.079,0.592,0.16,0.906,0.244c0.044,0.012,0.092,0.024,0.136,0.036c0.31,0.082,0.626,0.166,0.955,0.253
		c0.063,0.017,0.13,0.034,0.194,0.051c0.31,0.082,0.626,0.164,0.952,0.249c0.096,0.024,0.197,0.051,0.294,0.076
		c0.311,0.08,0.625,0.161,0.95,0.244c0.098,0.024,0.199,0.05,0.297,0.075c0.324,0.082,0.651,0.165,0.988,0.25
		c0.125,0.031,0.252,0.063,0.378,0.095c0.321,0.08,0.645,0.16,0.977,0.242c0.143,0.035,0.289,0.071,0.434,0.106
		c0.319,0.078,0.64,0.156,0.967,0.236c0.166,0.04,0.335,0.08,0.503,0.12c0.315,0.076,0.633,0.152,0.956,0.229
		c0.183,0.044,0.368,0.087,0.553,0.131c0.196,0.046,0.395,0.092,0.593,0.139V84.659l0.27-0.14c0.484-0.251,0.979-0.498,1.486-0.74
		l0.715-0.34v27.272c0.562,0.126,1.136,0.252,1.713,0.378V82.705l0.311-0.127c0.485-0.197,0.979-0.393,1.482-0.582l0.676-0.255
		v29.879c0.565,0.119,1.137,0.236,1.713,0.354V81.146l0.345-0.112c0.486-0.158,0.982-0.31,1.48-0.46l0.644-0.192v32.086
		c0.567,0.11,1.139,0.218,1.713,0.325V79.901l0.375-0.097c0.486-0.126,0.983-0.244,1.479-0.362l0.616-0.146v33.947
		c0.568,0.101,1.14,0.199,1.713,0.296v-34.62l0.4-0.082c0.417-0.084,0.841-0.162,1.265-0.24l0.804-0.147v35.494
		c0.57,0.09,1.141,0.177,1.713,0.263V78.163l0.425-0.063c0.489-0.074,0.983-0.141,1.478-0.208l0.566-0.076v36.741
		c0.496,0.067,0.992,0.132,1.487,0.195V77.637l0.447-0.048c0.49-0.054,0.981-0.104,1.477-0.149l0.546-0.05v37.658
		c0.572,0.064,1.143,0.124,1.713,0.181V77.26l0.735-0.047c0.402-0.026,0.804-0.053,1.21-0.072l0.525-0.026v38.344
		c0.574,0.047,1.145,0.089,1.713,0.128V77.055l0.489-0.011c0.437-0.01,0.876-0.014,1.316-0.017l0.664-0.005v38.712
		c0.417,0.02,0.834,0.038,1.247,0.053c0.119,0.004,0.239,0.01,0.356,0.014l0.11,0.002V77.031h0.005l0.509,0.009
		c0.494,0.01,0.986,0.023,1.478,0.04l0.483,0.017v38.732c0.566-0.003,1.138-0.014,1.713-0.028V77.175l0.683,0.041
		c0.442,0.025,0.886,0.053,1.324,0.086l0.462,0.035v38.368c0.568-0.028,1.139-0.062,1.713-0.099V77.489l0.551,0.058
		c0.496,0.051,0.989,0.104,1.479,0.162l0.439,0.053v37.648c0.494-0.045,0.99-0.092,1.487-0.142V77.954l0.572,0.083
		c0.433,0.063,0.858,0.134,1.284,0.203l0.613,0.102v36.651c0.57-0.068,1.142-0.14,1.713-0.216V78.644l0.597,0.118
		c0.498,0.099,0.989,0.204,1.479,0.309l0.395,0.085v35.278c0.572-0.085,1.143-0.172,1.713-0.263V79.548l0.623,0.158
		c0.499,0.127,0.99,0.26,1.479,0.395l0.368,0.101v33.563c0.573-0.098,1.146-0.198,1.714-0.301V80.697l0.651,0.208
		c0.501,0.16,0.991,0.327,1.479,0.496l0.336,0.116v31.48c0.574-0.111,1.146-0.223,1.713-0.337V82.142l0.687,0.274
		c0.501,0.2,0.999,0.403,1.483,0.613l0.301,0.13v28.985c0.576-0.123,1.148-0.246,1.713-0.371V83.952l0.727,0.369
		c0.508,0.258,1.004,0.522,1.486,0.791l0.258,0.144v25.957c0.381-0.089,0.761-0.177,1.135-0.266
		c0.153-0.036,0.311-0.072,0.463-0.109c1.324-0.315,2.604-0.632,3.828-0.942c0.094-0.023,0.184-0.047,0.276-0.071
		c0.512-0.13,1.016-0.26,1.507-0.389c0.143-0.037,0.281-0.073,0.422-0.11c0.432-0.113,0.857-0.227,1.271-0.337
		c0.151-0.041,0.301-0.081,0.45-0.121c0.401-0.108,0.794-0.216,1.177-0.32c0.133-0.037,0.267-0.073,0.397-0.109
		c0.392-0.108,0.771-0.214,1.141-0.317c0.108-0.03,0.222-0.063,0.328-0.092c0.399-0.113,0.782-0.222,1.152-0.328
		c0.064-0.019,0.134-0.038,0.196-0.057c0.425-0.122,0.829-0.239,1.213-0.352c0.146-0.043,0.275-0.081,0.415-0.123
		c0.218-0.063,0.436-0.128,0.638-0.188c0.234-0.069,0.454-0.136,0.668-0.2c0.067-0.021,0.139-0.041,0.204-0.062
		c1.087-0.328,1.874-0.576,2.298-0.711c-0.152-2.335-1.287-15.138-8.219-27.775c-7.02-12.796-21.61-28.05-51.264-28.05
		c-16.978,0-30.287,9.385-39.559,27.896C24.607,90.88,22.48,103.607,22.112,106.077z"/>
	<path fill="#727272" d="M130.561,106.899c-1.299,0.417-9.538,3.02-20.066,5.432c-0.486,0.112-0.977,0.224-1.473,0.334
		c-0.893,0.198-1.801,0.396-2.719,0.589c-0.489,0.103-0.978,0.206-1.474,0.307c-0.896,0.183-1.804,0.361-2.719,0.536l-0.155,0.029
		c-0.438,0.084-0.876,0.167-1.318,0.249c-0.9,0.164-1.809,0.323-2.72,0.479c-0.489,0.083-0.981,0.163-1.474,0.241
		c-0.904,0.146-1.811,0.286-2.721,0.417c-0.451,0.064-0.901,0.125-1.353,0.186l-0.123,0.018c-0.907,0.123-1.815,0.235-2.722,0.342
		c-0.492,0.058-0.983,0.111-1.475,0.163c-0.836,0.087-1.668,0.167-2.498,0.236l-0.32,0.027c-0.387,0.033-0.771,0.066-1.155,0.094
		c-0.916,0.066-1.823,0.117-2.726,0.158c-0.495,0.022-0.988,0.042-1.479,0.058c-0.869,0.025-1.732,0.042-2.585,0.042h-0.144
		c-0.498-0.001-0.988-0.013-1.479-0.022l-0.63-0.01c-0.692-0.022-1.393-0.052-2.098-0.088c-0.434-0.022-0.872-0.052-1.311-0.079
		l-0.165-0.012c-0.901-0.058-1.809-0.125-2.724-0.203c-0.49-0.042-0.982-0.09-1.475-0.138c-0.904-0.087-1.812-0.183-2.723-0.288
		c-0.491-0.056-0.982-0.114-1.474-0.176c-0.831-0.103-1.663-0.212-2.494-0.328l-1.473-0.207c-0.909-0.132-1.815-0.272-2.72-0.418
		c-0.492-0.078-0.983-0.158-1.474-0.239c-0.911-0.152-1.818-0.309-2.719-0.47l-1.473-0.269c-0.914-0.169-1.822-0.34-2.719-0.517
		l-1.472-0.294c-0.917-0.185-1.827-0.372-2.718-0.56l-1.415-0.304c-0.98-0.213-1.89-0.413-2.775-0.613l-1.473-0.338
		c-8.883-2.054-15.518-3.99-16.58-4.304c-6.352,2.478-11.037,4.617-13.036,5.56c6.75,2.425,42.726,14.895,69.918,15.425
		c27.243,0.524,59.534-12.396,65.51-14.895C142.004,112.054,137.145,109.647,130.561,106.899z"/>
	<path d="M145.361,112.652c-0.056-0.031-5.707-3.034-14.297-6.627c-0.138-2.178-1.234-15.288-8.328-28.241
		c-7.146-13.048-21.996-28.601-52.157-28.601c-17.141,0-31.131,9.838-40.452,28.448c-6.598,13.172-8.708,26.275-9.021,28.435
		c-8.519,3.324-14.037,6.039-14.093,6.067l-1.035,0.512l1.082,0.405c0.409,0.152,41.216,15.306,71.364,15.893
		c0.565,0.011,1.137,0.018,1.707,0.018c29.813,0,64.844-15.255,65.196-15.41l0.94-0.414L145.361,112.652z M78.442,127.944
		c-27.192-0.53-63.168-13-69.918-15.425c1.999-0.942,6.684-3.082,13.036-5.56c1.062,0.313,7.697,2.25,16.58,4.304l1.473,0.338
		c0.885,0.2,1.795,0.4,2.775,0.613l1.415,0.304c0.891,0.188,1.801,0.375,2.718,0.56l1.472,0.294
		c0.897,0.177,1.805,0.348,2.719,0.517l1.473,0.269c0.901,0.161,1.808,0.317,2.719,0.47c0.491,0.081,0.982,0.161,1.474,0.239
		c0.905,0.146,1.811,0.286,2.72,0.418l1.473,0.207c0.831,0.116,1.663,0.226,2.494,0.328c0.492,0.062,0.983,0.12,1.474,0.176
		c0.911,0.105,1.819,0.201,2.723,0.288c0.493,0.048,0.985,0.096,1.475,0.138c0.915,0.078,1.823,0.146,2.724,0.203l0.165,0.012
		c0.439,0.027,0.877,0.057,1.311,0.079c0.705,0.036,1.406,0.065,2.098,0.088l0.63,0.01c0.491,0.01,0.981,0.021,1.479,0.022h0.144
		c0.853,0,1.716-0.017,2.585-0.042c0.49-0.016,0.983-0.035,1.479-0.058c0.902-0.041,1.81-0.092,2.726-0.158
		c0.384-0.027,0.769-0.061,1.155-0.094l0.32-0.027c0.83-0.069,1.662-0.149,2.498-0.236c0.491-0.052,0.982-0.105,1.475-0.163
		c0.906-0.106,1.814-0.219,2.722-0.342l0.123-0.018c0.451-0.061,0.901-0.121,1.353-0.186c0.91-0.131,1.816-0.271,2.721-0.417
		c0.492-0.078,0.984-0.158,1.474-0.241c0.911-0.155,1.819-0.314,2.72-0.479c0.442-0.082,0.881-0.165,1.318-0.249l0.155-0.029
		c0.915-0.175,1.823-0.354,2.719-0.536c0.496-0.101,0.984-0.204,1.474-0.307c0.918-0.193,1.826-0.391,2.719-0.589
		c0.496-0.11,0.986-0.222,1.473-0.334c10.528-2.412,18.768-5.015,20.066-5.432c6.584,2.748,11.443,5.155,13.392,6.15
		C137.977,115.548,105.686,128.468,78.442,127.944z M70.578,50.183c29.653,0,44.244,15.254,51.264,28.05
		c6.932,12.638,8.066,25.44,8.219,27.775c-0.424,0.135-1.211,0.383-2.298,0.711c-0.065,0.021-0.137,0.041-0.204,0.062
		c-0.214,0.064-0.434,0.131-0.668,0.2c-0.202,0.061-0.42,0.125-0.638,0.188c-0.14,0.042-0.27,0.08-0.415,0.123
		c-0.384,0.112-0.788,0.229-1.213,0.352c-0.063,0.019-0.132,0.038-0.196,0.057c-0.37,0.106-0.753,0.215-1.152,0.328
		c-0.106,0.029-0.22,0.062-0.328,0.092c-0.37,0.104-0.749,0.209-1.141,0.317c-0.131,0.036-0.265,0.072-0.397,0.109
		c-0.383,0.104-0.775,0.212-1.177,0.32c-0.149,0.04-0.299,0.08-0.45,0.121c-0.414,0.11-0.84,0.224-1.271,0.337
		c-0.141,0.037-0.279,0.073-0.422,0.11c-0.491,0.129-0.995,0.259-1.507,0.389c-0.093,0.024-0.183,0.048-0.276,0.071
		c-1.224,0.311-2.504,0.627-3.828,0.942c-0.152,0.037-0.31,0.073-0.463,0.109c-0.374,0.089-0.754,0.177-1.135,0.266V85.256
		l-0.258-0.144c-0.482-0.269-0.979-0.533-1.486-0.791l-0.727-0.369v27.821c-0.564,0.125-1.137,0.248-1.713,0.371V83.159l-0.301-0.13
		c-0.484-0.21-0.982-0.413-1.483-0.613l-0.687-0.274v30.519c-0.567,0.114-1.139,0.226-1.713,0.337v-31.48l-0.336-0.116
		c-0.488-0.169-0.979-0.336-1.479-0.496l-0.651-0.208v32.767c-0.568,0.103-1.141,0.203-1.714,0.301V80.201l-0.368-0.101
		c-0.488-0.135-0.979-0.268-1.479-0.395l-0.623-0.158v34.623c-0.57,0.091-1.141,0.178-1.713,0.263V79.156l-0.395-0.085
		c-0.49-0.104-0.981-0.21-1.479-0.309l-0.597-0.118v36.134c-0.571,0.076-1.143,0.147-1.713,0.216V78.342l-0.613-0.102
		c-0.426-0.069-0.852-0.14-1.284-0.203l-0.572-0.083v37.313c-0.497,0.05-0.993,0.097-1.487,0.142V77.761l-0.439-0.053
		c-0.489-0.059-0.982-0.111-1.479-0.162l-0.551-0.058v38.118c-0.574,0.037-1.145,0.07-1.713,0.099V77.337l-0.462-0.035
		c-0.438-0.033-0.882-0.061-1.324-0.086l-0.683-0.041V115.8c-0.575,0.015-1.146,0.025-1.713,0.028V77.096l-0.483-0.017
		c-0.491-0.017-0.983-0.03-1.478-0.04l-0.509-0.009h-0.005v38.772l-0.11-0.002c-0.118-0.004-0.238-0.01-0.356-0.014
		c-0.413-0.015-0.829-0.033-1.247-0.053V77.023l-0.664,0.005c-0.44,0.003-0.879,0.007-1.316,0.017l-0.489,0.011v38.531
		c-0.568-0.039-1.139-0.081-1.713-0.128V77.115l-0.525,0.026c-0.406,0.02-0.808,0.046-1.21,0.072l-0.735,0.047v37.969
		c-0.57-0.057-1.141-0.116-1.713-0.181V77.39l-0.546,0.05c-0.496,0.045-0.987,0.096-1.477,0.149l-0.447,0.048v37.115
		c-0.495-0.063-0.991-0.128-1.487-0.195V77.816l-0.566,0.076c-0.495,0.067-0.989,0.134-1.478,0.208l-0.425,0.063v36.043
		c-0.572-0.086-1.143-0.173-1.713-0.263V78.449l-0.804,0.147c-0.424,0.078-0.848,0.156-1.265,0.24l-0.4,0.082v34.62
		c-0.573-0.097-1.145-0.195-1.713-0.296V79.296l-0.616,0.146c-0.496,0.118-0.993,0.236-1.479,0.362l-0.375,0.097v32.892
		c-0.574-0.107-1.146-0.215-1.713-0.325V80.381l-0.644,0.192c-0.498,0.15-0.994,0.302-1.48,0.46l-0.345,0.112v30.828
		c-0.576-0.117-1.148-0.234-1.713-0.354V81.741l-0.676,0.255c-0.503,0.189-0.997,0.385-1.482,0.582l-0.311,0.127v28.385
		c-0.578-0.126-1.151-0.252-1.713-0.378V83.44l-0.715,0.34c-0.507,0.242-1.002,0.489-1.486,0.74l-0.27,0.14v25.485
		c-0.198-0.047-0.397-0.093-0.593-0.139c-0.185-0.044-0.37-0.087-0.553-0.131c-0.323-0.076-0.64-0.152-0.956-0.229
		c-0.168-0.04-0.337-0.08-0.503-0.12c-0.327-0.08-0.648-0.158-0.967-0.236c-0.145-0.035-0.292-0.071-0.434-0.106
		c-0.332-0.082-0.655-0.162-0.977-0.242c-0.126-0.032-0.254-0.063-0.378-0.095c-0.336-0.085-0.664-0.168-0.988-0.25
		c-0.098-0.025-0.199-0.051-0.297-0.075c-0.324-0.083-0.639-0.164-0.95-0.244c-0.097-0.025-0.198-0.052-0.294-0.076
		c-0.326-0.085-0.642-0.167-0.952-0.249c-0.064-0.017-0.131-0.034-0.194-0.051c-0.329-0.087-0.646-0.171-0.955-0.253
		c-0.044-0.012-0.092-0.024-0.136-0.036c-0.313-0.084-0.614-0.165-0.906-0.244c-0.035-0.01-0.074-0.02-0.108-0.029
		c-0.254-0.068-0.493-0.134-0.729-0.198c-0.07-0.02-0.147-0.04-0.216-0.06c-0.105-0.028-0.2-0.055-0.302-0.083
		c-1.563-0.431-2.69-0.756-3.252-0.921c0.368-2.471,2.495-15.197,8.907-27.999C40.291,59.568,53.6,50.183,70.578,50.183z
		 M85.512,78.204v37.751c-0.49,0.042-0.982,0.087-1.47,0.121V78.043C84.534,78.094,85.026,78.146,85.512,78.204z M93.651,115.016
		c-0.49,0.071-0.979,0.136-1.47,0.202V79.252c0.496,0.098,0.982,0.201,1.47,0.307V115.016z M89.469,115.558
		c-0.492,0.058-0.98,0.111-1.471,0.163V78.532c0.495,0.072,0.982,0.154,1.471,0.234V115.558z M71.494,77.544
		c0.487-0.011,0.978-0.014,1.469-0.018v38.687c-0.486-0.025-0.978-0.058-1.469-0.089V77.544z M81.329,116.235
		c-0.491,0.022-0.983,0.041-1.47,0.057V77.704c0.49,0.029,0.982,0.059,1.47,0.095V116.235z M77.146,116.333
		c-0.495-0.001-0.983-0.012-1.471-0.022V77.539c0.492,0.01,0.981,0.023,1.471,0.039V116.333z M67.311,115.785V77.729
		c0.489-0.031,0.976-0.064,1.47-0.089v38.282C68.292,115.88,67.802,115.833,67.311,115.785z M63.128,115.323V78.086
		c0.487-0.053,0.976-0.104,1.47-0.148v37.56C64.108,115.442,63.619,115.384,63.128,115.323z M59.172,114.791V78.594
		c0.485-0.074,0.977-0.141,1.469-0.206v36.608C60.151,114.929,59.661,114.862,59.172,114.791z M54.989,79.327
		c0.483-0.098,0.978-0.187,1.47-0.276v35.321c-0.491-0.077-0.981-0.156-1.47-0.238V79.327z M50.805,80.288
		c0.484-0.125,0.977-0.242,1.47-0.359v33.738c-0.493-0.089-0.982-0.18-1.47-0.27V80.288z M46.623,81.509
		c0.482-0.157,0.975-0.308,1.469-0.456v31.829c-0.494-0.098-0.981-0.195-1.469-0.294V81.509z M38.257,84.964
		c0.479-0.249,0.969-0.493,1.47-0.732v26.881c-0.499-0.111-0.985-0.225-1.47-0.337V84.964z M43.91,112.029
		c-0.496-0.104-0.982-0.211-1.469-0.315V83.042c0.481-0.197,0.97-0.39,1.469-0.577V112.029z M96.365,80.191
		c0.496,0.126,0.982,0.258,1.469,0.391v33.778c-0.488,0.083-0.978,0.162-1.469,0.241V80.191z M102.016,81.872v31.732
		c-0.487,0.093-0.976,0.188-1.469,0.277V81.38C101.045,81.539,101.532,81.705,102.016,81.872z M104.73,82.88
		c0.496,0.198,0.988,0.399,1.469,0.607v29.276c-0.488,0.103-0.975,0.206-1.469,0.306V82.88z M108.912,112.177V84.768
		c0.503,0.255,0.993,0.516,1.471,0.782v26.294C109.896,111.955,109.408,112.067,108.912,112.177z"/>
</g>
<g>
	<path fill="#FFDE17" d="M36.47,91.416l-15.401-20.15c0,0-10.336,14.083-15.464,13.577c11.795,8.147,18.382-0.06,18.382-0.06
		l9.512,9.577L36.47,91.416z"/>
	<path d="M33.496,95.068l-9.493-9.559c-0.978,0.998-3.839,3.438-8.429,3.438c-3.254,0-6.704-1.243-10.253-3.694l-1.59-1.1
		l1.924,0.19c0.074,0.007,0.149,0.011,0.226,0.011l0,0c4.068-0.001,12.052-9.663,14.785-13.386l0.395-0.538l16.073,21.03
		L33.496,95.068z M23.948,84.036l9.554,9.617l2.304-2.284L21.074,72.094c-1.801,2.378-9.107,11.695-14.038,13.087
		c2.97,1.837,5.837,2.768,8.539,2.768c5.151,0,7.996-3.443,8.024-3.479L23.948,84.036z"/>
</g>
<g>
	<path fill="#FFDE17" d="M112.19,90.967l14.225-20.993c0,0,11.124,13.479,16.212,12.674c-11.313,8.808-18.359,0.987-18.359,0.987
		l-8.945,10.1L112.19,90.967z"/>
	<path d="M115.365,94.44l-3.835-3.39l14.847-21.91l0.424,0.515c0.106,0.128,10.938,13.233,15.748,12.499l1.916-0.303l-1.529,1.191
		c-3.66,2.849-7.274,4.293-10.743,4.293c-4.183,0-6.919-2.085-7.897-2.977L115.365,94.44z M112.852,90.884l2.428,2.146l8.984-10.143
		l0.375,0.414c0.027,0.029,2.811,3.036,7.553,3.036c2.896,0,5.928-1.099,9.021-3.266c-4.992-1.1-12.822-9.996-14.755-12.269
		L112.852,90.884z"/>
</g>
</svg>
