<?xml version="1.0" encoding="utf-8"?>
<!-- Generator: Adobe Illustrator 16.0.0, SVG Export Plug-In . SVG Version: 6.00 Build 0)  -->
<!DOCTYPE svg PUBLIC "-//W3C//DTD SVG 1.1//EN" "http://www.w3.org/Graphics/SVG/1.1/DTD/svg11.dtd">
<svg version="1.1" id="Layer_1" xmlns="http://www.w3.org/2000/svg" xmlns:xlink="http://www.w3.org/1999/xlink" x="0px" y="0px"
	 width="150px" height="150.014px" viewBox="-54.319 -54.325 150 150.014" enable-background="new -54.319 -54.325 150 150.014"
	 xml:space="preserve">
<g>
	<path fill="#727272" d="M-47.413,46.5c0,0,40.787,15.27,71.197,15.863c30.418,0.602,66.692-15.35,66.692-15.35
		S50.769,25.796,18.653,27.758C-13.465,29.716-47.413,46.5-47.413,46.5z"/>
	<path fill="#919191" d="M-33.089,40.355c0,0,5.738-53.022,49.021-56.752c43.28-3.727,56.607,55.309,56.607,55.309
		s-29.11,12.015-52.137,11.308C-2.629,49.504-33.089,40.355-33.089,40.355z"/>
	<path fill="#FFDE17" d="M-18.178,25.334L-33.579,5.184c0,0-10.336,14.083-15.464,13.577c11.795,8.148,18.382-0.059,18.382-0.059
		l9.512,9.578L-18.178,25.334z"/>
	<path fill="#FFDE17" d="M57.542,24.886L71.767,3.893c0,0,11.123,13.478,16.212,12.674c-11.314,8.807-18.359,0.987-18.359,0.987
		l-8.946,10.1L57.542,24.886z"/>
</g>
</svg>
