<?xml version="1.0" encoding="utf-8"?>
<!-- Generator: Adobe Illustrator 16.0.0, SVG Export Plug-In . SVG Version: 6.00 Build 0)  -->
<!DOCTYPE svg PUBLIC "-//W3C//DTD SVG 1.1//EN" "http://www.w3.org/Graphics/SVG/1.1/DTD/svg11.dtd">
<svg version="1.1" id="Layer_1" xmlns="http://www.w3.org/2000/svg" xmlns:xlink="http://www.w3.org/1999/xlink" x="0px" y="0px"
	 width="150px" height="204.332px" viewBox="0 -21.824 150 204.332" enable-background="new 0 -21.824 150 204.332"
	 xml:space="preserve">
<g>
	<g>
		<path d="M60.752,116.906c-0.194,0-0.378-0.113-0.459-0.303c-0.028-0.064-0.041-0.132-0.041-0.197c0-0.194,0.114-0.378,0.303-0.46
			c1.236-0.529,2.105-1.396,2.655-2.65c0.111-0.253,0.405-0.367,0.659-0.257c0.188,0.083,0.299,0.267,0.299,0.459
			c0,0.066-0.014,0.135-0.042,0.2c-0.648,1.476-1.717,2.541-3.176,3.168C60.885,116.893,60.818,116.906,60.752,116.906z"/>
	</g>
	<g>
		<path d="M61.663,115.281c-0.164,0-0.324-0.08-0.419-0.228c-0.055-0.084-0.081-0.178-0.081-0.271c0-0.164,0.08-0.324,0.227-0.42
			c0.194-0.127,0.368-0.288,0.542-0.448c0.271-0.249,0.552-0.506,0.912-0.689c0.246-0.127,0.546-0.027,0.672,0.218
			c0.037,0.073,0.055,0.15,0.055,0.227c0,0.182-0.1,0.358-0.273,0.446c-0.238,0.122-0.458,0.323-0.69,0.536
			c-0.207,0.189-0.421,0.385-0.672,0.549C61.851,115.254,61.756,115.281,61.663,115.281z"/>
	</g>
	<g>
		<path d="M49.851,117.556C49.85,117.556,49.85,117.556,49.851,117.556c-2.584,0-4.712-0.293-6.697-0.921
			c-1.724-0.546-3.219-1.521-4.664-2.464c-3.157-2.062-6.054-4.721-8.639-7.92c-1.302-1.612-2.215-3.726-2.874-6.652
			c-0.219-0.973,0.012-1.874,0.235-2.745c0.158-0.617,0.308-1.2,0.294-1.784c-0.007-0.333,0.187-0.644,0.494-0.79
			c0.082-0.039,0.169-0.054,0.262-0.047l0.295,0.027c0.135,0.013,0.259,0.079,0.343,0.185c0.171,0.213,0.307,0.243,0.427,0.243
			c0.177,0,0.388-0.074,0.612-0.153l0.255-0.086c0.063-0.02,0.129-0.024,0.194-0.021l39.943,3.659
			c0.217,0.02,0.396,0.178,0.443,0.391s-0.049,0.431-0.238,0.54c-0.044,0.026-0.074,0.048-0.093,0.063
			c0.016,0.015,0.041,0.048,0.082,0.093c0.104,0.111,0.152,0.265,0.13,0.416l-0.427,2.85c-0.019,0.123-0.083,0.233-0.176,0.312
			c0.068,0.112,0.111,0.243,0.093,0.351l-0.247,1.46c-0.031,0.186-0.164,0.338-0.344,0.395c-0.128,0.04-0.183,0.127-0.317,0.429
			l-0.072,0.159c-1.116,2.356-2.751,4.199-4.051,5.541c-1.853,1.915-4.124,3.068-6.319,4.183c-1.122,0.57-2.281,1.159-3.352,1.837
			c-0.245,0.155-0.533,0.19-0.784,0.211C53.204,117.432,51.512,117.556,49.851,117.556z M28.499,95.429
			c-0.037,0.58-0.179,1.134-0.317,1.673c-0.203,0.792-0.395,1.54-0.229,2.278c0.623,2.771,1.474,4.754,2.676,6.242
			c2.519,3.118,5.338,5.707,8.381,7.693c1.416,0.925,2.852,1.861,4.446,2.366c1.884,0.596,3.916,0.874,6.395,0.874c0,0,0,0,0,0
			c1.625,0,3.293-0.122,4.73-0.236c0.073-0.007,0.271-0.022,0.328-0.06c1.112-0.704,2.293-1.304,3.436-1.884
			c2.22-1.127,4.317-2.191,6.054-3.986c1.852-1.911,3.044-3.538,3.865-5.273l0.063-0.138c0.12-0.27,0.276-0.62,0.632-0.841
			l0.16-0.944c-0.153-0.187-0.217-0.386-0.191-0.596c0.027-0.217,0.145-0.4,0.352-0.547l0.359-2.393
			c-0.149-0.214-0.218-0.432-0.206-0.649l-39.026-3.575l-0.133,0.045C29.746,95.662,29.026,95.796,28.499,95.429z"/>
	</g>
	<g>
		<path d="M102.063,118.281c-0.001,0-0.011,0-0.011,0c-3.224,0-6.232-0.98-8.94-2.913c-1.712-1.222-3.689-2.66-5.496-4.28
			l-0.289-0.257c-0.642-0.567-1.304-1.155-1.871-1.854c-0.102-0.125-0.193-0.278-0.282-0.431c-0.057-0.097-0.146-0.25-0.206-0.316
			c-0.018,0.034-0.126,0.114-0.304,0.327c-0.162,0.193-0.375,0.3-0.6,0.3c-0.593,0-0.962-0.715-1.001-1.114
			c-0.11-1.104-0.353-2.221-0.586-3.3c-0.313-1.444-0.638-2.938-0.669-4.479l-0.004-0.326c-0.006-0.539-0.011-1.049-0.157-1.551
			l-0.037-0.129c-0.036-0.137-0.014-0.282,0.063-0.401c0.076-0.118,0.2-0.199,0.339-0.222l32.135-5.261
			c0.027-0.005,0.089-0.007,0.116-0.007c2.159,0,4.373,0.177,6.582,0.525c1.312,0.207,2.349,1.222,2.847,2.786
			c0.516,1.618,0.948,3.762-0.286,5.995c-0.427,0.772-0.722,1.667-1.006,2.533c-0.099,0.301-0.197,0.6-0.301,0.896
			c-0.967,2.761-2.726,5.086-5.533,7.318l-0.129,0.102c-2.275,1.805-4.629,3.67-7.641,4.377c-0.767,0.18-1.543,0.444-2.295,0.699
			C105.083,117.781,103.617,118.28,102.063,118.281z M85.008,107.222c0.549,0,0.826,0.474,1.028,0.819
			c0.063,0.108,0.125,0.218,0.196,0.307c0.515,0.635,1.118,1.169,1.757,1.735l0.293,0.26c1.77,1.586,3.72,3.006,5.409,4.211
			c2.536,1.81,5.349,2.728,8.36,2.728v0.5l0.01-0.5c1.39-0.002,2.715-0.452,4.118-0.93c0.773-0.264,1.574-0.535,2.388-0.727
			c2.794-0.655,4.957-2.371,7.248-4.187l0.128-0.102c2.653-2.109,4.31-4.291,5.212-6.866c0.102-0.289,0.197-0.583,0.294-0.876
			c0.299-0.91,0.608-1.852,1.081-2.706c0.819-1.481,0.884-3.088,0.208-5.208c-0.223-0.699-0.784-1.901-2.05-2.101
			c-2.157-0.341-4.319-0.514-6.426-0.514l-31.557,5.167c0.088,0.482,0.093,0.944,0.098,1.394l0.004,0.316
			c0.028,1.443,0.343,2.889,0.646,4.287c0.24,1.106,0.488,2.251,0.604,3.412c0.002,0.019,0.01,0.042,0.021,0.068
			C84.317,107.463,84.635,107.222,85.008,107.222z"/>
	</g>
	<g>
		<path fill="#6F6D67" d="M136.909,73.571c-0.816-0.438-0.875-1.151-0.966-1.807c-0.304-2.168-0.414-4.343-0.928-6.504
			c-0.199-0.829-0.318-1.676-0.403-2.531l0,0c0,0-6.606-1.281-6.625-2.004l3.449-9.054h0.975h0.139
			c-1.684-3.501-3.79-6.76-5.89-10.02l0,0h-6.32v-6.973c-0.362-0.608-0.906-1.148-1.469-1.591c-1.978-1.559-3.638-3.46-5.466-5.177
			l-9.886,4.963l-0.845-11.572l0.243-0.167c-1.811-1.007-3.813-1.562-5.737-2.232c-0.995-0.349-1.978-0.701-2.951-1.082
			l-17.491,8.502c0,0-17.025-7.48-17.504-7.261l0,0c-1.149,0.508-2.346,0.921-3.408,1.59c-0.969,0.611-2.116,0.836-3.186,1.269
			l0.232,0.152l-3.809,7.506l-6.687-2.469c-1.22,0.903-2.099,2.199-3.257,3.159c-1.538,1.272-2.989,2.795-4.376,4.312
			c-0.716,0.782-1.4,1.602-2.157,2.348l0.005,0.001l2.447,8.191l-8.803,0.874c-1.218,2.048-2.589,4.041-3.945,6.023
			c-0.474,0.694-0.948,1.398-1.374,2.129l0.848,0.132l4.224,6.946l-7.395,2.308c-0.047,0.577,0.015,1.163-0.294,1.695
			c-0.473,0.812-0.45,1.747-0.224,2.546c0.535,1.896-0.078,3.499-0.923,5.109c-0.733,1.397-1.022,3.002-2.006,4.29
			c-0.147,0.194-0.076,0.565-0.077,0.854c-0.01,3.05,0.017,6.101-0.026,9.15c-0.051,3.632,0.548,7.159,2.028,10.454
			c1.535,3.417,2.752,6.853,3.135,10.628c0.388,3.834,0.83,7.653,0.736,11.509c-0.058,2.419-0.188,4.836-0.274,7.253
			c-0.148,4.102,1.165,7.804,3.115,11.326c0.906,1.636,2.207,2.259,4.116,1.853c2.647-0.565,5.35-0.87,7.997-1.433
			c1.484-0.315,2.568,0.049,3.676,1.037c3.756,3.351,3.997,3.635,4.891,8.603c0.286,1.59,0.565,3.183,0.842,4.775l6.788,7.295
			l1.436,1.542l10.863,11.677c-0.534-3.051-1.04-6.106-1.467-9.175c-0.409-2.936-1.302-5.853-0.707-8.874
			c1.424-0.09,2.847-0.178,4.269-0.268c0.54,0.319,1.134,0.169,1.705,0.192c3.243,0.143,6.478-0.248,9.719-0.165
			c2.245,0.057,4.491,0.326,6.73,0.267c1.893-0.053,3.772-0.032,5.654,0.108c0.864,0.063,1.738,0.138,2.555,0.48
			c0.314,0.133,0.769,0.305,0.595,0.668c-0.424,0.89-0.186,1.811-0.299,2.711c-0.39,3.067-0.836,6.128-1.153,9.202
			c-0.212,2.058-0.441,4.113-0.689,6.165l8.243-8.751c0.165-1.635,0.323-3.271,0.476-4.909c0.319-3.415,1.017-6.779,1.493-10.169
			c0.477-3.384,0.911-6.772,1.335-10.164c0.071-0.559,0.093-1.125,0.563-1.617c0.219,0.709,0.106,1.341,0.087,1.96
			c-0.146,4.604-1.027,9.122-1.685,13.66c-0.497,3.424-0.942,6.854-1.369,10.287l8.112-8.61c0.498-3.462,0.974-6.929,1.431-10.396
			c0.361-2.739,1.306-4.844,3.739-6.266c0.705-0.411,1.282-0.708,2.13-0.576c3.588,0.558,7.15,1.221,10.683,2.067
			c2.443,0.583,3.576,0.028,4.756-2.189c0.205-0.385,0.365-0.792,0.535-1.192c1.497-3.542,1.725-7.325,2.064-11.082
			c0.06-0.651,0.014-1.353-0.26-1.991c-0.041-0.728-0.08-1.452-0.12-2.178c0.303-1.943,0.049-3.882-0.022-5.823
			c0.064-1.569,0.129-3.139,0.194-4.707c0.157-0.283,0.213-0.573,0.067-0.881c0.004-0.762-0.184-1.587,0.046-2.274
			c0.795-2.392,0.773-4.882,1.081-7.333c0.308-1.098,0.434-2.231,0.77-3.331c0.663-2.173,1.263-4.371,1.742-6.589
			c1.169-5.403,0.482-10.864,0.358-16.305C137.738,74.894,137.611,73.945,136.909,73.571z M43.305,116.158
			c-1.669-0.528-3.129-1.484-4.568-2.424c-3.254-2.125-6.074-4.799-8.496-7.798c-1.468-1.816-2.255-4.135-2.775-6.447
			c-0.339-1.507,0.575-2.921,0.542-4.431c-0.003-0.156,0.095-0.273,0.209-0.328l0.295,0.027c0.584,0.728,1.25,0.35,1.833,0.168
			l39.943,3.659c-0.443,0.257-0.464,0.569-0.125,0.931c-0.143,0.949-0.285,1.898-0.427,2.85c-0.388,0.172-0.421,0.389-0.082,0.653
			c-0.082,0.486-0.165,0.974-0.247,1.46c-0.421,0.132-0.525,0.499-0.692,0.852c-0.973,2.055-2.354,3.751-3.958,5.407
			c-2.737,2.828-6.41,3.938-9.58,5.944c-0.153,0.098-0.368,0.12-0.557,0.136C50.818,117.12,47.02,117.334,43.305,116.158z
			 M60.752,116.406c1.341-0.575,2.309-1.527,2.916-2.909l0,0C63.061,114.878,62.093,115.83,60.752,116.406z M61.662,114.781
			c0.495-0.322,0.876-0.84,1.408-1.111C62.538,113.941,62.157,114.458,61.662,114.781z M65.198,132.206l6.165-15.801L70.809,137.2
			L65.198,132.206z M81.62,116.663l6.137,17.842l-6.572,6.711L81.62,116.663z M122.968,101.131
			c-0.599,1.082-0.928,2.328-1.341,3.505c-1.039,2.966-2.96,5.175-5.373,7.093c-2.321,1.84-4.615,3.689-7.572,4.384
			c-2.223,0.521-4.336,1.666-6.62,1.669c-3.135,0.002-6.051-0.958-8.66-2.82c-1.879-1.341-3.725-2.696-5.452-4.245
			c-0.736-0.657-1.482-1.285-2.105-2.054c-0.413-0.511-0.604-1.577-1.564-0.426c-0.324,0.387-0.691-0.261-0.72-0.544
			c-0.259-2.607-1.199-5.101-1.252-7.739c-0.014-0.672,0.016-1.331-0.181-2.007c-0.013-0.043-0.023-0.079-0.034-0.119l32.135-5.261
			c2.183-0.002,4.375,0.178,6.539,0.52c1.278,0.201,2.072,1.262,2.448,2.443C123.811,97.4,124.003,99.259,122.968,101.131z"/>
		<path d="M91.306,175.506c-0.072,0-0.145-0.016-0.212-0.047c-0.195-0.092-0.311-0.299-0.284-0.513
			c0.247-2.049,0.477-4.102,0.688-6.156c0.221-2.143,0.509-4.31,0.787-6.405c0.124-0.937,0.248-1.872,0.367-2.81
			c0.036-0.289,0.032-0.581,0.029-0.874c-0.005-0.571-0.012-1.214,0.255-1.856c-0.075-0.039-0.174-0.08-0.238-0.107
			c-0.753-0.316-1.515-0.392-2.437-0.459c-1.756-0.131-3.655-0.164-5.604-0.107c-1.38,0.035-2.777-0.051-4.128-0.135
			c-0.876-0.055-1.753-0.11-2.629-0.132c-1.509-0.036-3.047,0.027-4.537,0.092c-1.696,0.073-3.456,0.149-5.191,0.073l-0.114-0.003
			c-0.103,0-0.206,0.005-0.31,0.009c-0.403,0.017-0.851,0.058-1.369-0.19l-3.736,0.234c-0.321,2.056,0.038,4.052,0.417,6.158
			c0.13,0.724,0.261,1.447,0.361,2.172c0.368,2.64,0.813,5.428,1.441,9.024c0.032,0.066,0.051,0.141,0.051,0.22
			c0,0.279-0.218,0.493-0.51,0.5c-0.135-0.002-0.277-0.053-0.376-0.159L44.94,153.521c-0.066-0.071-0.11-0.16-0.126-0.255
			c-0.277-1.592-0.556-3.184-0.841-4.772c-0.878-4.881-1.096-5.075-4.731-8.318c-1.051-0.938-1.963-1.193-3.239-0.921
			c-1.328,0.282-2.687,0.503-4.001,0.716c-1.316,0.214-2.677,0.435-3.996,0.717c-2.119,0.45-3.627-0.238-4.658-2.1
			c-2.303-4.16-3.313-7.842-3.177-11.587c0.032-0.902,0.071-1.805,0.109-2.708c0.064-1.513,0.129-3.025,0.165-4.538
			c0.084-3.469-0.276-6.984-0.625-10.385l-0.108-1.062c-0.417-4.107-1.872-7.755-3.093-10.474c-1.43-3.182-2.126-6.771-2.072-10.666
			c0.029-2.003,0.027-4.006,0.025-6.01c-0.001-1.045-0.002-2.09,0.001-3.136c0-0.062-0.003-0.127-0.007-0.193
			c-0.016-0.297-0.036-0.667,0.186-0.96c0.557-0.728,0.875-1.571,1.213-2.463c0.22-0.582,0.448-1.184,0.749-1.757
			c0.868-1.652,1.35-3.091,0.884-4.741c-0.302-1.069-0.206-2.111,0.273-2.933c0.176-0.304,0.19-0.659,0.206-1.071
			c0.005-0.138,0.011-0.275,0.022-0.413c0.017-0.203,0.155-0.376,0.35-0.437l6.784-2.117l-3.771-6.201l-0.618-0.096
			c-0.164-0.025-0.304-0.13-0.375-0.279c-0.071-0.149-0.063-0.324,0.02-0.467c0.434-0.744,0.906-1.446,1.393-2.159l0.15-0.22
			c1.285-1.877,2.613-3.818,3.778-5.777c0.081-0.137,0.222-0.227,0.38-0.242l8.2-0.813l-2.261-7.567
			c-0.005-0.014-0.01-0.028-0.015-0.043c-0.054-0.177-0.007-0.37,0.125-0.5c0.503-0.496,0.987-1.041,1.454-1.566
			c0.228-0.256,0.455-0.511,0.685-0.763c1.365-1.492,2.846-3.052,4.426-4.359c0.503-0.417,0.949-0.898,1.421-1.408
			c0.568-0.614,1.156-1.249,1.857-1.768c0.136-0.099,0.312-0.125,0.471-0.067l6.269,2.315l3.419-6.738
			c-0.072-0.098-0.107-0.221-0.095-0.346c0.018-0.185,0.138-0.345,0.31-0.415c0.378-0.153,0.766-0.281,1.152-0.409
			c0.705-0.232,1.371-0.451,1.954-0.819c0.813-0.513,1.697-0.88,2.553-1.235c0.308-0.128,0.615-0.255,0.919-0.39
			c0.064-0.028,0.164-0.047,0.233-0.047c0.95,0,13.331,5.4,17.462,7.215l17.283-8.401c0.127-0.061,0.269-0.067,0.401-0.016
			c0.968,0.379,1.944,0.729,2.934,1.076c0.412,0.144,0.829,0.282,1.246,0.421c1.528,0.508,3.108,1.034,4.569,1.846
			c0.151,0.084,0.248,0.241,0.256,0.414c0.009,0.173-0.073,0.338-0.217,0.436l-0.006,0.004l0.77,10.539l9.217-4.627
			c0.188-0.093,0.413-0.062,0.567,0.083c0.64,0.601,1.259,1.225,1.879,1.848c1.125,1.132,2.288,2.303,3.554,3.301
			c0.698,0.55,1.233,1.131,1.589,1.728c0.046,0.077,0.07,0.166,0.07,0.256v6.473h5.82c0.17,0,0.328,0.086,0.42,0.229l0.08,0.125
			c2.025,3.144,4.119,6.394,5.786,9.837c0.077,0.088,0.123,0.203,0.123,0.329c0,0.276-0.224,0.5-0.5,0.5
			c-0.005,0-0.013,0.001-0.02,0h-0.769l-3.217,8.443c0.755,0.416,3.643,1.14,6.143,1.625c0.218,0.042,0.381,0.221,0.403,0.441
			c0.096,0.969,0.221,1.752,0.392,2.464c0.354,1.492,0.521,2.999,0.684,4.456c0.078,0.699,0.155,1.397,0.253,2.095
			c0.101,0.743,0.182,1.153,0.707,1.436c1.064,0.567,1.099,2.024,1.11,2.503c0.028,1.262,0.088,2.524,0.146,3.787
			c0.194,4.142,0.395,8.425-0.517,12.635c-0.441,2.045-1.015,4.214-1.752,6.629c-0.173,0.564-0.286,1.133-0.406,1.734
			c-0.106,0.532-0.214,1.063-0.36,1.586c-0.073,0.625-0.134,1.326-0.194,2.027c-0.151,1.754-0.309,3.568-0.894,5.328
			c-0.126,0.378-0.092,0.85-0.056,1.35c0.016,0.224,0.031,0.446,0.034,0.666c0.135,0.357,0.11,0.73-0.071,1.113l-0.189,4.597
			c0.018,0.438,0.046,0.913,0.074,1.389c0.087,1.445,0.177,2.939-0.05,4.438l0.112,2.041c0.248,0.623,0.337,1.345,0.264,2.149
			l-0.082,0.918c-0.302,3.435-0.614,6.987-2.02,10.313l-0.095,0.226c-0.143,0.341-0.286,0.682-0.46,1.008
			c-1.009,1.896-2.061,2.67-3.631,2.67l0,0c-0.484,0-1.035-0.075-1.683-0.229c-3.237-0.776-6.719-1.45-10.644-2.06
			c-0.684-0.108-1.153,0.137-1.801,0.514c-2.063,1.206-3.109,2.971-3.495,5.899c-0.458,3.47-0.934,6.938-1.432,10.402
			c-0.015,0.102-0.061,0.196-0.131,0.271l-8.112,8.61c-0.148,0.157-0.382,0.201-0.577,0.109c-0.047-0.021-0.09-0.051-0.126-0.085
			c-0.021,0.212-0.043,0.424-0.064,0.635c-0.011,0.11-0.058,0.213-0.133,0.293l-8.243,8.751
			C91.573,175.451,91.44,175.506,91.306,175.506z M86.491,155.145c1.358,0,2.616,0.044,3.844,0.136
			c0.798,0.059,1.79,0.132,2.711,0.519c0.336,0.141,0.741,0.311,0.89,0.701c0.055,0.144,0.093,0.372-0.037,0.644
			c-0.227,0.476-0.222,0.997-0.217,1.549c0.003,0.326,0.007,0.663-0.037,1.009c-0.119,0.939-0.244,1.877-0.368,2.814
			c-0.277,2.089-0.564,4.249-0.784,6.377c-0.16,1.557-0.33,3.113-0.512,4.667l7.088-7.523c0.159-1.578,0.312-3.157,0.458-4.736
			c0.204-2.177,0.563-4.358,0.912-6.47c0.204-1.24,0.409-2.479,0.584-3.723c0.506-3.595,0.958-7.151,1.334-10.156l0.02-0.165
			c0.065-0.549,0.14-1.172,0.679-1.736c0.123-0.128,0.304-0.184,0.477-0.141c0.172,0.04,0.311,0.17,0.362,0.339
			c0.199,0.645,0.162,1.225,0.13,1.737c-0.009,0.13-0.017,0.258-0.021,0.386c-0.113,3.563-0.669,7.115-1.207,10.552
			c-0.165,1.055-0.33,2.109-0.482,3.164c-0.379,2.61-0.749,5.358-1.178,8.758l6.953-7.38c0.49-3.408,0.958-6.82,1.407-10.234
			c0.426-3.226,1.654-5.271,3.983-6.632c0.759-0.442,1.444-0.795,2.459-0.639c3.951,0.614,7.458,1.293,10.722,2.075
			c0.57,0.136,1.045,0.202,1.45,0.202c1.188,0,1.907-0.56,2.748-2.14c0.159-0.3,0.289-0.612,0.42-0.924l0.097-0.229
			c1.344-3.18,1.649-6.652,1.944-10.011l0.082-0.921c0.062-0.674-0.013-1.263-0.222-1.749c-0.022-0.054-0.036-0.111-0.039-0.169
			l-0.12-2.179c-0.002-0.035,0-0.069,0.005-0.104c0.22-1.41,0.136-2.803,0.048-4.277c-0.029-0.483-0.058-0.967-0.076-1.45
			l0.194-4.746c0.004-0.078,0.025-0.154,0.063-0.223c0.127-0.227,0.094-0.338,0.053-0.424c-0.032-0.067-0.048-0.142-0.048-0.217
			c0.001-0.227-0.017-0.46-0.033-0.692c-0.041-0.576-0.084-1.172,0.104-1.737c0.548-1.648,0.693-3.324,0.847-5.099
			c0.062-0.714,0.124-1.428,0.213-2.139c0.154-0.571,0.255-1.078,0.356-1.585c0.12-0.599,0.244-1.219,0.431-1.83
			c0.729-2.389,1.296-4.53,1.732-6.548c0.883-4.083,0.686-8.3,0.495-12.377c-0.06-1.271-0.119-2.541-0.148-3.811
			c-0.021-0.91-0.212-1.448-0.582-1.645c-1.003-0.539-1.124-1.433-1.213-2.086c-0.112-0.8-0.19-1.508-0.27-2.216
			c-0.158-1.427-0.322-2.903-0.662-4.334c-0.159-0.662-0.28-1.377-0.375-2.227c-6.64-1.313-6.657-2.025-6.667-2.411
			c-0.002-0.065,0.01-0.13,0.033-0.191l3.449-9.054c0.073-0.194,0.26-0.322,0.467-0.322h0.311c-1.571-3.129-3.492-6.12-5.359-9.02
			h-6.048c-0.276,0-0.5-0.224-0.5-0.5v-6.83c-0.293-0.453-0.723-0.903-1.278-1.341c-1.313-1.036-2.498-2.229-3.644-3.381
			c-0.53-0.533-1.06-1.066-1.602-1.584l-9.572,4.805c-0.15,0.075-0.326,0.07-0.472-0.012c-0.145-0.082-0.239-0.231-0.252-0.398
			l-0.845-11.572c0-0.01-0.001-0.02-0.001-0.03c-1.245-0.625-2.591-1.072-3.898-1.507c-0.422-0.14-0.843-0.28-1.261-0.426
			c-0.932-0.327-1.852-0.656-2.764-1.009l-17.295,8.407c-0.134,0.064-0.285,0.066-0.42,0.008
			c-6.074-2.669-15.938-6.906-17.219-7.209c-0.275,0.12-0.549,0.233-0.822,0.347c-0.854,0.355-1.661,0.69-2.403,1.157
			c-0.687,0.434-1.443,0.683-2.175,0.924c-0.186,0.061-0.373,0.123-0.559,0.187c-0.009,0.039-0.022,0.076-0.041,0.113l-3.809,7.506
			c-0.115,0.227-0.38,0.332-0.619,0.243l-6.427-2.373c-0.537,0.432-1.01,0.943-1.507,1.48c-0.474,0.512-0.963,1.041-1.518,1.5
			c-1.534,1.269-2.986,2.799-4.327,4.264c-0.227,0.248-0.451,0.5-0.675,0.752c-0.412,0.464-0.836,0.941-1.283,1.397l2.363,7.91
			c0.043,0.143,0.02,0.297-0.064,0.421c-0.083,0.124-0.217,0.205-0.366,0.219l-8.552,0.849c-1.149,1.912-2.436,3.792-3.682,5.613
			l-0.15,0.219c-0.334,0.49-0.662,0.975-0.972,1.468l0.109,0.017c0.146,0.023,0.274,0.108,0.351,0.234l4.224,6.946
			c0.08,0.131,0.095,0.292,0.041,0.437c-0.054,0.144-0.172,0.255-0.319,0.301l-7.063,2.204c0,0.012-0.001,0.025-0.001,0.037
			c-0.019,0.476-0.039,1.015-0.34,1.535c-0.438,0.75-0.336,1.588-0.175,2.159c0.588,2.084-0.114,3.864-0.961,5.478
			c-0.272,0.519-0.479,1.066-0.699,1.646c-0.349,0.921-0.709,1.872-1.353,2.715c0.002,0.021,0.011,0.196,0.017,0.301
			c0.005,0.086,0.009,0.171,0.009,0.251c-0.003,1.044-0.002,2.088-0.001,3.132c0.002,2.008,0.003,4.016-0.025,6.023
			c-0.052,3.749,0.615,7.195,1.984,10.242c1.252,2.788,2.745,6.532,3.176,10.782l0.108,1.061c0.352,3.432,0.716,6.979,0.63,10.511
			c-0.037,1.52-0.101,3.038-0.166,4.557c-0.039,0.901-0.077,1.802-0.109,2.702c-0.128,3.557,0.841,7.072,3.053,11.066
			c0.815,1.473,1.916,1.96,3.575,1.605c1.342-0.286,2.716-0.51,4.044-0.726c1.302-0.211,2.648-0.43,3.953-0.707
			c1.593-0.337,2.828,0.007,4.113,1.153c3.82,3.408,4.132,3.788,5.05,8.887c0.277,1.543,0.548,3.087,0.817,4.633l17.84,19.173
			c-0.495-2.895-0.867-5.268-1.183-7.533c-0.099-0.712-0.227-1.423-0.355-2.134c-0.401-2.228-0.815-4.531-0.348-6.906
			c0.044-0.223,0.232-0.388,0.459-0.402l4.269-0.268c0.105-0.013,0.2,0.019,0.287,0.068c0.223,0.133,0.562,0.145,0.964,0.13
			c0.117-0.005,0.234-0.01,0.351-0.01l0.156,0.003c1.704,0.075,3.429-0.001,5.105-0.072c1.506-0.065,3.066-0.132,4.606-0.093
			c0.889,0.022,1.777,0.078,2.666,0.134c1.329,0.083,2.703,0.168,4.038,0.133C85.251,155.154,85.871,155.145,86.491,155.145z
			 M81.185,141.716c-0.065,0-0.131-0.013-0.193-0.039c-0.188-0.079-0.311-0.265-0.307-0.47l0.436-24.553
			c0.004-0.243,0.183-0.447,0.422-0.485c0.244-0.036,0.472,0.103,0.551,0.331l6.137,17.842c0.062,0.18,0.017,0.378-0.115,0.513
			l-6.572,6.711C81.446,141.664,81.316,141.716,81.185,141.716z M82.069,119.508l-0.362,20.46l5.477-5.592L82.069,119.508z
			 M70.809,137.7c-0.12,0-0.239-0.043-0.333-0.127l-5.611-4.994c-0.156-0.139-0.209-0.36-0.133-0.555l6.165-15.801
			c0.088-0.228,0.323-0.361,0.565-0.309c0.238,0.048,0.407,0.261,0.401,0.504l-0.554,20.795c-0.005,0.194-0.123,0.368-0.301,0.445
			C70.944,137.687,70.876,137.7,70.809,137.7z M65.79,132.064l4.548,4.048l0.449-16.854L65.79,132.064z M102.063,118.281
			c-3.234,0-6.243-0.98-8.951-2.913c-1.712-1.222-3.689-2.66-5.496-4.28l-0.289-0.257c-0.642-0.568-1.304-1.155-1.871-1.854
			c-0.102-0.125-0.193-0.278-0.282-0.431c-0.053-0.09-0.133-0.227-0.192-0.3c-0.056,0.037-0.159,0.121-0.317,0.311
			c-0.162,0.193-0.375,0.3-0.6,0.3c-0.593,0-0.961-0.715-1.001-1.114c-0.11-1.104-0.353-2.221-0.586-3.3
			c-0.313-1.444-0.638-2.938-0.669-4.479l-0.004-0.326c-0.006-0.539-0.011-1.049-0.157-1.551l-0.036-0.129
			c-0.037-0.137-0.015-0.282,0.063-0.401c0.076-0.118,0.2-0.199,0.339-0.222l32.135-5.261c0.027-0.005,0.089-0.007,0.116-0.007
			c2.159,0,4.373,0.177,6.582,0.525c1.312,0.207,2.349,1.222,2.847,2.786c0.516,1.618,0.948,3.762-0.286,5.995
			c-0.428,0.772-0.722,1.668-1.006,2.533c-0.099,0.301-0.197,0.6-0.301,0.896c-0.967,2.761-2.726,5.086-5.533,7.318l-0.129,0.102
			c-2.275,1.805-4.629,3.67-7.641,4.377c-0.767,0.18-1.543,0.444-2.295,0.699C105.083,117.781,103.617,118.28,102.063,118.281z
			 M85.008,107.222c0.549,0,0.826,0.474,1.028,0.819c0.063,0.108,0.125,0.218,0.196,0.307c0.515,0.635,1.118,1.169,1.757,1.734
			l0.293,0.261c1.77,1.586,3.72,3.006,5.409,4.211c2.536,1.81,5.349,2.728,8.36,2.728c1.399-0.002,2.725-0.452,4.128-0.93
			c0.773-0.264,1.574-0.535,2.388-0.727c2.794-0.655,4.957-2.371,7.248-4.187l0.128-0.102c2.653-2.109,4.31-4.291,5.212-6.866
			c0.102-0.289,0.197-0.583,0.294-0.876c0.299-0.91,0.608-1.852,1.081-2.706c0.819-1.481,0.884-3.088,0.208-5.208
			c-0.223-0.699-0.784-1.901-2.05-2.101c-2.157-0.341-4.319-0.514-6.426-0.514l-31.556,5.167c0.087,0.481,0.092,0.943,0.097,1.394
			l0.004,0.316c0.028,1.443,0.343,2.889,0.646,4.287c0.24,1.106,0.488,2.251,0.604,3.412c0.003,0.019,0.011,0.042,0.021,0.068
			C84.317,107.463,84.635,107.222,85.008,107.222z M49.85,117.556c-2.584,0-4.712-0.293-6.696-0.921
			c-1.724-0.546-3.219-1.521-4.664-2.464c-3.157-2.062-6.054-4.721-8.639-7.92c-1.302-1.612-2.215-3.726-2.874-6.652
			c-0.219-0.973,0.012-1.874,0.235-2.745c0.158-0.617,0.308-1.2,0.294-1.784c-0.007-0.333,0.187-0.644,0.494-0.79
			c0.082-0.039,0.169-0.054,0.262-0.047l0.295,0.027c0.135,0.013,0.259,0.079,0.343,0.185c0.171,0.213,0.307,0.243,0.427,0.243
			c0.177,0,0.388-0.074,0.612-0.153l0.255-0.086c0.063-0.02,0.129-0.024,0.194-0.021l39.943,3.659
			c0.217,0.02,0.396,0.178,0.443,0.391s-0.049,0.431-0.238,0.54c-0.045,0.026-0.074,0.048-0.093,0.063
			c0.016,0.015,0.041,0.048,0.082,0.093c0.104,0.111,0.152,0.265,0.13,0.416l-0.427,2.85c-0.019,0.123-0.083,0.233-0.176,0.312
			c0.068,0.112,0.111,0.243,0.093,0.351l-0.247,1.46c-0.031,0.186-0.164,0.338-0.344,0.395c-0.128,0.04-0.183,0.127-0.317,0.429
			l-0.072,0.159c-1.116,2.356-2.751,4.199-4.051,5.541c-1.853,1.915-4.124,3.068-6.319,4.183c-1.122,0.57-2.281,1.159-3.352,1.837
			c-0.245,0.155-0.533,0.19-0.784,0.211C53.204,117.432,51.512,117.556,49.85,117.556z M28.499,95.429
			c-0.037,0.58-0.179,1.134-0.317,1.673c-0.203,0.792-0.395,1.54-0.229,2.278c0.623,2.771,1.474,4.754,2.676,6.242
			c2.519,3.118,5.338,5.707,8.381,7.693c1.416,0.924,2.852,1.861,4.446,2.366c1.884,0.596,3.916,0.874,6.395,0.874
			c1.625,0,3.294-0.122,4.731-0.236c0.073-0.007,0.271-0.022,0.328-0.06c1.112-0.704,2.293-1.304,3.436-1.884
			c2.22-1.127,4.317-2.191,6.054-3.986c1.852-1.911,3.044-3.538,3.865-5.273l0.063-0.138c0.12-0.27,0.276-0.62,0.632-0.841
			l0.16-0.944c-0.153-0.187-0.217-0.386-0.191-0.596c0.027-0.217,0.145-0.4,0.352-0.547l0.359-2.393
			c-0.149-0.214-0.218-0.432-0.206-0.649l-39.026-3.575l-0.133,0.045C29.745,95.662,29.026,95.796,28.499,95.429z M60.752,116.906
			c-0.194,0-0.378-0.113-0.459-0.303c-0.028-0.064-0.041-0.132-0.041-0.197c0-0.194,0.114-0.378,0.303-0.46
			c0.424-0.182,0.805-0.403,1.145-0.666c-0.181,0.015-0.354-0.068-0.457-0.227c-0.055-0.084-0.081-0.178-0.081-0.271
			c0-0.164,0.08-0.324,0.227-0.42c0.194-0.127,0.368-0.288,0.542-0.448c0.271-0.249,0.552-0.506,0.912-0.689
			c0.135-0.069,0.287-0.071,0.417-0.018c0.135-0.188,0.388-0.264,0.609-0.168c0.188,0.082,0.299,0.267,0.299,0.459
			c0,0.066-0.014,0.135-0.042,0.2c-0.648,1.476-1.716,2.541-3.176,3.168C60.885,116.893,60.818,116.906,60.752,116.906z"/>
	</g>
	<g>
		<polygon fill="#E2D2AA" points="21.765,54.278 20.917,54.146 5.098,51.671 18.595,63.532 25.989,61.224 		"/>
		<path d="M18.595,64.032c-0.12,0-0.237-0.043-0.33-0.125L4.768,52.047C4.601,51.9,4.551,51.66,4.646,51.459
			c0.094-0.201,0.31-0.316,0.53-0.282l16.667,2.607c0.146,0.023,0.274,0.108,0.351,0.234l4.224,6.946
			c0.08,0.131,0.095,0.292,0.041,0.437c-0.054,0.144-0.172,0.255-0.319,0.301l-7.395,2.308
			C18.695,64.025,18.645,64.032,18.595,64.032z M6.72,52.431l11.994,10.54l6.516-2.033l-3.771-6.201L6.72,52.431z"/>
	</g>
	<g>
		<polygon fill="#E2D2AA" points="32.592,36.929 32.587,36.928 17.259,32.873 26.236,45.994 35.039,45.12 		"/>
		<path d="M26.236,46.494c-0.164,0-0.319-0.081-0.413-0.218l-8.978-13.121c-0.118-0.172-0.116-0.4,0.004-0.571
			c0.12-0.17,0.333-0.249,0.537-0.195l15.329,4.055c0.168,0.044,0.306,0.174,0.356,0.341l2.447,8.191
			c0.043,0.143,0.02,0.298-0.064,0.421c-0.083,0.124-0.217,0.205-0.366,0.219l-8.803,0.874
			C26.269,46.493,26.252,46.494,26.236,46.494z M18.431,33.7l8.051,11.767l7.905-0.784l-2.193-7.343L18.431,33.7z"/>
	</g>
	<g>
		<polygon fill="#E2D2AA" points="52.873,22.073 52.641,21.921 38.044,12.331 42.355,27.102 42.378,27.11 49.064,29.579 		"/>
		<path d="M49.064,30.079c-0.058,0-0.116-0.01-0.173-0.031l-6.687-2.469c-0.148-0.055-0.285-0.185-0.329-0.337l-4.311-14.771
			c-0.059-0.201,0.014-0.417,0.183-0.542c0.17-0.125,0.397-0.13,0.572-0.016l14.828,9.741c0.213,0.14,0.287,0.417,0.172,0.645
			l-3.809,7.506C49.423,29.977,49.248,30.079,49.064,30.079z M42.765,26.72l6.055,2.235l3.405-6.71l-13.32-8.751L42.765,26.72z"/>
	</g>
	<g>
		<polygon fill="#E2D2AA" points="103.52,32.873 113.405,27.91 113.405,27.91 115.757,12.331 102.918,21.135 102.675,21.302 		"/>
		<path d="M103.52,33.373c-0.085,0-0.171-0.022-0.247-0.065c-0.145-0.083-0.239-0.232-0.252-0.398l-0.845-11.572
			c-0.013-0.178,0.069-0.349,0.217-0.449l13.081-8.97c0.166-0.113,0.38-0.117,0.549-0.011c0.169,0.106,0.259,0.302,0.229,0.499
			l-2.352,15.579c-0.024,0.161-0.125,0.299-0.27,0.372l-9.886,4.963C103.673,33.356,103.597,33.373,103.52,33.373z M103.194,21.552
			l0.77,10.54l8.985-4.511l2.142-14.186L103.194,21.552z"/>
	</g>
	<g>
		<polygon fill="#E2D2AA" points="126.66,41.652 126.66,41.652 132.98,32.873 120.34,34.679 120.34,41.652 		"/>
		<path d="M126.66,42.152h-6.32c-0.276,0-0.5-0.224-0.5-0.5v-6.973c0-0.249,0.183-0.46,0.43-0.495l12.641-1.806
			c0.198-0.029,0.395,0.064,0.498,0.236c0.104,0.171,0.095,0.388-0.021,0.551l-6.32,8.778
			C126.972,42.074,126.821,42.152,126.66,42.152z M120.84,41.152h5.564l5.484-7.617l-11.049,1.578V41.152z"/>
	</g>
	<g>
		<path fill="#E2D2AA" d="M131.437,51.671l-3.449,9.054c0.019,0.723,6.625,2.004,6.625,2.004l0,0l10.797-11.058H132.55h-0.139
			H131.437z"/>
		<path d="M134.612,63.229c-0.031,0-0.063-0.003-0.095-0.009c-7.001-1.357-7.02-2.089-7.03-2.482
			c-0.002-0.065,0.01-0.13,0.033-0.191l3.449-9.054c0.073-0.194,0.26-0.322,0.467-0.322h13.973c0.201,0,0.383,0.121,0.461,0.306
			c0.078,0.186,0.037,0.4-0.104,0.543L134.97,63.078C134.875,63.176,134.746,63.229,134.612,63.229z M128.564,60.614
			c0.729,0.401,3.443,1.089,5.879,1.573l9.779-10.016h-12.441L128.564,60.614z"/>
	</g>
	<g>
		<polygon points="71.363,116.406 65.198,132.206 70.809,137.2 		"/>
		<path d="M70.809,137.7c-0.12,0-0.239-0.043-0.333-0.127l-5.611-4.994c-0.156-0.139-0.209-0.36-0.133-0.555l6.165-15.801
			c0.089-0.228,0.329-0.357,0.565-0.309c0.238,0.048,0.407,0.261,0.401,0.504l-0.554,20.795c-0.005,0.194-0.123,0.368-0.301,0.445
			C70.944,137.687,70.876,137.7,70.809,137.7z M65.79,132.064l4.548,4.048l0.449-16.854L65.79,132.064z"/>
	</g>
	<g>
		<polygon points="81.62,116.663 81.185,141.216 87.757,134.505 		"/>
		<path d="M81.185,141.716c-0.065,0-0.131-0.013-0.193-0.039c-0.188-0.079-0.311-0.265-0.307-0.47l0.436-24.553
			c0.004-0.243,0.183-0.447,0.422-0.485c0.244-0.036,0.472,0.103,0.551,0.331l6.137,17.842c0.062,0.18,0.017,0.378-0.115,0.513
			l-6.572,6.711C81.446,141.664,81.316,141.716,81.185,141.716z M82.069,119.508l-0.362,20.46l5.477-5.592L82.069,119.508z"/>
	</g>
	<g>
		<path fill="#A08135" d="M66.769-15.382l28.766,6.395C95.215-9.568,67.393-15.77,66.769-15.382z"/>
		<path d="M95.535-8.487c-0.036,0-0.072-0.004-0.108-0.012l-28.766-6.395c-0.198-0.044-0.35-0.204-0.384-0.404
			s0.056-0.401,0.229-0.509c0.132-0.082,0.273-0.093,0.395-0.093c1.325,0,10.127,1.89,15.119,3.007
			c10.158,2.272,12.855,3.065,13.623,3.417l0.002,0.001c0.26,0.119,0.297,0.188,0.329,0.247c0.096,0.172,0.08,0.384-0.037,0.541
			C95.84-8.559,95.69-8.487,95.535-8.487z"/>
	</g>
	<g>
		<path fill="#A08135" d="M53.53-2.01l13.239-13.372C66.145-14.994,53.319-2.785,53.53-2.01z"/>
		<path d="M53.53-1.51c-0.042,0-0.085-0.005-0.127-0.017c-0.173-0.045-0.309-0.179-0.355-0.352c-0.027-0.099,0.023-0.259,0.14-0.471
			l-0.013-0.013l0.047-0.048c1.499-2.583,11.826-12.1,13.146-13.277l0.046-0.046l0.003,0.003c0.052-0.046,0.083-0.072,0.089-0.076
			c0.215-0.134,0.497-0.085,0.655,0.113c0.158,0.198,0.143,0.483-0.036,0.663L53.886-1.658C53.791-1.562,53.662-1.51,53.53-1.51z"/>
	</g>
	<g>
		<path fill="#A08135" d="M95.535-8.987l-1.306,26.808C94.229,17.821,95.856-8.406,95.535-8.987z"/>
		<path d="M94.229,18.321c-0.009,0-0.019,0-0.027-0.001c-0.274-0.015-0.485-0.249-0.472-0.523l1.306-26.808
			c0.011-0.223,0.168-0.412,0.386-0.462c0.22-0.051,0.443,0.049,0.551,0.245c0.021,0.037,0.036,0.125,0.049,0.266l0.013,0.001
			L96.029-8.85c0.116,1.932-0.32,10.895-1.301,26.702C94.712,18.117,94.492,18.321,94.229,18.321z"/>
	</g>
	<g>
		<path fill="#A08135" d="M76.738,26.323L74.99,1.285L53.53-2.01c0.212,0.775,5.704,21.071,5.704,21.072l0,0
			C59.713,18.843,76.738,26.323,76.738,26.323z"/>
		<path d="M76.738,26.823c-0.068,0-0.137-0.014-0.201-0.042c-6.158-2.706-16.211-7.022-17.267-7.22
			c-0.191,0.008-0.388-0.089-0.482-0.273c-0.023-0.046-0.023-0.046-0.89-3.248c-1.552-5.734-4.691-17.335-4.851-17.918
			c-0.044-0.164-0.003-0.338,0.109-0.464c0.113-0.126,0.285-0.187,0.449-0.162l21.46,3.295c0.231,0.036,0.407,0.226,0.423,0.459
			l1.738,24.899c0.02,0.054,0.03,0.112,0.03,0.173c0,0.276-0.224,0.5-0.5,0.5C76.753,26.823,76.746,26.823,76.738,26.823z
			 M59.637,18.637c2.205,0.646,12.308,5.039,16.544,6.896L74.519,1.719L54.214-1.399c0.744,2.743,3.299,12.185,4.65,17.178
			L59.637,18.637z"/>
	</g>
	<g>
		<polygon fill="#7C6532" points="74.99,1.285 76.738,26.323 94.229,17.821 94.229,17.821 95.535,-8.987 		"/>
		<path d="M76.738,26.823c-0.087,0-0.173-0.022-0.25-0.067c-0.145-0.083-0.237-0.232-0.249-0.398L74.491,1.32
			c-0.014-0.201,0.095-0.392,0.275-0.482L95.312-9.434c0.159-0.079,0.348-0.068,0.497,0.028c0.148,0.097,0.234,0.266,0.226,0.443
			l-1.306,26.808c-0.009,0.182-0.116,0.345-0.28,0.425l-17.491,8.502C76.888,26.806,76.813,26.823,76.738,26.823z M75.513,1.583
			l1.673,23.967l16.559-8.049l1.25-25.658L75.513,1.583z"/>
	</g>
	<g>
		<polygon fill="#CCB17A" points="74.99,1.285 95.535,-8.987 66.769,-15.382 53.53,-2.01 		"/>
		<path d="M74.99,1.785c-0.025,0-0.051-0.002-0.076-0.006l-21.46-3.295c-0.186-0.028-0.34-0.159-0.399-0.337
			c-0.059-0.178-0.013-0.375,0.119-0.508l13.239-13.372c0.121-0.123,0.294-0.174,0.464-0.137l28.766,6.395
			c0.207,0.046,0.362,0.217,0.388,0.427c0.026,0.21-0.083,0.414-0.272,0.508L75.214,1.732C75.144,1.767,75.067,1.785,74.99,1.785z
			 M54.576-2.355l20.333,3.122l19.143-9.57l-27.122-6.03L54.576-2.355z"/>
	</g>
</g>
</svg>
