<?xml version="1.0" encoding="utf-8"?>
<!-- Generator: Adobe Illustrator 16.0.0, SVG Export Plug-In . SVG Version: 6.00 Build 0)  -->
<!DOCTYPE svg PUBLIC "-//W3C//DTD SVG 1.1//EN" "http://www.w3.org/Graphics/SVG/1.1/DTD/svg11.dtd">
<svg version="1.1" id="Layer_1" xmlns="http://www.w3.org/2000/svg" xmlns:xlink="http://www.w3.org/1999/xlink" x="0px" y="0px"
	 width="150px" height="150.014px" viewBox="-54.319 -54.325 150 150.014" enable-background="new -54.319 -54.325 150 150.014"
	 xml:space="preserve">
<g>
	<path fill="#8E8282" d="M80.822,38.722c0,30.421-110.161,30.421-110.161,0c0-30.416,24.659-55.075,55.081-55.075
		C56.163-16.353,80.822,8.306,80.822,38.722z"/>
	<polygon fill="#E0C1C1" points="-24.841,36.476 -43.574,9.875 -21.844,23.175 	"/>
	<polygon fill="#E0C1C1" points="-11.73,6.128 -19.972,-16.353 -6.858,0.505 	"/>
	<polygon fill="#E0C1C1" points="12.253,-9.235 12.253,-27.969 16.748,-9.235 	"/>
	<polygon fill="#E0C1C1" points="41.475,-6.988 57.964,-22.724 47.475,-5.112 	"/>
	<polygon fill="#E0C1C1" points="66.583,16.241 82.694,2.753 72.199,22.59 	"/>
	<polygon fill="#E0C1C1" points="12.253,9.69 1.759,-3.422 16.748,3.137 	"/>
	<polygon fill="#E0C1C1" points="23.958,-0.577 32.292,-13.361 32.764,3.137 	"/>
	<polygon fill="#E0C1C1" points="41.475,14.746 56.089,6.128 48.787,19.241 	"/>
	<polygon fill="#E0C1C1" points="-3.858,30.48 -11.353,16.994 1.759,26.736 	"/>
	<path fill="#E0C1C1" d="M18.994,33.477c0.748-1.495,4.964-16.483,4.964-16.483l4.403,18.358L18.994,33.477z"/>
	<polygon fill="#E0C1C1" points="56.089,42.847 69.957,36.476 63.022,47.338 	"/>
	<polygon fill="#E0C1C1" points="-13.415,43.967 -32.709,51.837 -11.353,51.837 	"/>
	<polygon fill="#E0C1C1" points="9.253,51.837 1.759,69.45 16.748,56.335 	"/>
	<polygon fill="#E0C1C1" points="41.475,54.459 51.593,67.201 46.534,54.459 	"/>
	<polygon fill="#E0C1C1" points="72.95,43.967 89.064,47.902 74.635,39.85 	"/>
</g>
</svg>
