<?xml version="1.0" encoding="utf-8"?>
<!-- Generator: Adobe Illustrator 16.0.0, SVG Export Plug-In . SVG Version: 6.00 Build 0)  -->
<!DOCTYPE svg PUBLIC "-//W3C//DTD SVG 1.1//EN" "http://www.w3.org/Graphics/SVG/1.1/DTD/svg11.dtd">
<svg version="1.1" id="Layer_1" xmlns="http://www.w3.org/2000/svg" xmlns:xlink="http://www.w3.org/1999/xlink" x="0px" y="0px"
	 width="41.363px" height="41.364px" viewBox="0 0 41.363 41.364" enable-background="new 0 0 41.363 41.364" xml:space="preserve">
<g>
	<path fill="#8E8282" d="M36.438,25.909c0,8.744-31.664,8.744-31.664,0c0-8.743,7.088-15.831,15.832-15.831
		C29.35,10.078,36.438,17.166,36.438,25.909z"/>
	<polygon fill="#E0C1C1" points="6.067,25.263 0.682,17.617 6.928,21.44 	"/>
	<polygon fill="#E0C1C1" points="9.836,16.54 7.467,10.078 11.236,14.924 	"/>
	<polygon fill="#E0C1C1" points="16.729,12.124 16.729,6.739 18.021,12.124 	"/>
	<polygon fill="#E0C1C1" points="25.129,12.77 29.868,8.247 26.853,13.309 	"/>
	<polygon fill="#E0C1C1" points="32.345,19.447 36.976,15.57 33.96,21.272 	"/>
	<polygon fill="#E0C1C1" points="16.729,17.564 13.713,13.795 18.021,15.68 	"/>
	<polygon fill="#E0C1C1" points="20.094,14.613 22.489,10.938 22.625,15.68 	"/>
	<polygon fill="#E0C1C1" points="25.129,19.017 29.329,16.54 27.23,20.309 	"/>
	<polygon fill="#E0C1C1" points="12.098,23.54 9.944,19.663 13.713,22.463 	"/>
	<path fill="#E0C1C1" d="M18.667,24.401c0.215-0.43,1.427-4.738,1.427-4.738l1.265,5.277L18.667,24.401z"/>
	<polygon fill="#E0C1C1" points="29.329,27.094 33.315,25.263 31.322,28.386 	"/>
	<polygon fill="#E0C1C1" points="9.351,27.417 3.805,29.678 9.944,29.678 	"/>
	<polygon fill="#E0C1C1" points="15.867,29.678 13.713,34.741 18.021,30.971 	"/>
	<polygon fill="#E0C1C1" points="25.129,30.432 28.037,34.094 26.583,30.432 	"/>
	<polygon fill="#E0C1C1" points="34.176,27.417 38.807,28.547 34.66,26.233 	"/>
</g>
</svg>
