<?xml version="1.0" encoding="utf-8"?>
<!-- Generator: Adobe Illustrator 16.0.0, SVG Export Plug-In . SVG Version: 6.00 Build 0)  -->
<!DOCTYPE svg PUBLIC "-//W3C//DTD SVG 1.1//EN" "http://www.w3.org/Graphics/SVG/1.1/DTD/svg11.dtd">
<svg version="1.1" id="Layer_1" xmlns="http://www.w3.org/2000/svg" xmlns:xlink="http://www.w3.org/1999/xlink" x="0px" y="0px"
	 width="600px" height="255px" viewBox="0 0 600 255" enable-background="new 0 0 600 255" xml:space="preserve">
<g>
	<polygon fill="none" points="334.168,86.627 331.011,89.792 327.023,87.753 329.051,91.744 325.867,94.916 330.296,94.217 
		332.334,98.209 333.061,93.779 337.479,93.079 333.479,91.037 	"/>
	<polygon fill="none" points="322.16,98.623 318.988,101.788 314.988,99.766 317.03,103.752 313.854,106.916 318.278,106.225 
		320.312,110.203 321.027,105.792 325.459,105.081 321.447,103.059 	"/>
	<polygon fill="none" points="106.802,139.272 118.541,131.468 111.813,112.091 	"/>
	<polygon fill="none" points="346.213,74.613 343.017,77.791 339.033,75.75 341.068,79.743 337.913,82.901 342.33,82.209 
		344.367,86.201 345.067,81.776 349.497,81.07 345.501,79.044 	"/>
	<polygon fill="none" points="64.141,34.98 52.548,34.98 52.548,81.039 81.654,59.357 	"/>
	<path d="M21.716,145.808c0,3.458-0.668,6.827-1.979,10.104c-1.318,3.294-2.796,6.244-4.438,8.862
		c-1.809,2.963-3.948,5.848-6.412,8.622h55.743c-2.132-1.808-4.024-3.765-5.672-5.903c-1.483-1.804-2.794-3.899-3.94-6.29
		c-1.158-2.379-1.731-4.96-1.731-7.757c0-2.783-0.052-6.317-0.127-10.591c-0.082-4.27-0.203-8.452-0.362-12.56
		c-0.172-4.761-0.249-9.763-0.249-15.021c4.769-3.609,10.116-7.52,16.031-11.696c5.92-4.194,11.962-8.459,18.138-12.814
		c6.162-4.347,12.241-8.695,18.246-13.056c6.003-4.349,11.637-8.659,16.902-12.93L80.42,0H0l21.716,22.909V145.808z M52.548,34.98
		h11.592l17.514,24.377L52.548,81.039V34.98z"/>
	<path d="M121.508,170.356c-0.726,1.157-1.509,2.199-2.343,3.126h28.788c-1.464-1.969-2.871-4.919-4.227-8.836
		c-1.356-3.889-2.553-7.831-3.597-11.784c-1.254-4.588-2.4-9.471-3.443-14.684l10.644-4.525l-2.197-10.006l-11.732,3.44
		c-1.56-5.206-2.923-10.051-4.068-14.533c-1.147-3.852-2.19-7.596-3.125-11.244c-0.943-3.642-1.675-6.248-2.192-7.813
		c-0.419-1.455-0.655-2.994-0.706-4.608s0.026-3.146,0.236-4.608c0.211-1.563,0.469-3.121,0.783-4.685L92.407,98.502l5.011,6.87
		c-1.986,10.102-3.756,19.269-5.322,27.492c-0.625,3.536-1.28,7.032-1.956,10.477c-0.681,3.432-1.279,6.584-1.802,9.443
		c-0.522,2.865-0.961,5.278-1.331,7.263c-0.362,1.98-0.597,3.277-0.698,3.916c-0.211,2.083-0.893,3.914-2.039,5.538
		c-1.146,1.616-2.19,2.785-3.125,3.512l14.394,0.305c3.649,0.114,6.966,0.165,9.932,0.165c2.974,0,4.566,0,4.775,0
		c0.102,0-0.547-0.624-1.954-1.866c-1.407-1.26-3.419-3.549-6.023-6.879c-0.528-3.546,0.179-6.584,2.108-9.139
		c1.928-2.546,4.149-4.707,6.652-6.486c2.916-1.983,6.309-3.638,10.166-4.997c0.523,2.915,0.993,5.684,1.414,8.276
		c0.312,2.188,0.624,4.373,0.937,6.563c0.311,2.186,0.469,3.864,0.469,5.009c0,1.144-0.258,2.26-0.782,3.353
		C122.711,168.408,122.138,169.427,121.508,170.356z M106.802,139.272l5.011-27.182l6.729,19.377L106.802,139.272z"/>
	<path d="M192.543,173.482h25.184c-0.935-0.724-2.03-2.02-3.285-3.902c-1.248-1.882-1.878-3.854-1.878-5.936
		c0-5.417,0-10.911,0-16.489c0-5.569,0.025-11.583,0.083-18.043c0.052-6.449,0.102-13.589,0.153-21.395
		c0.051-7.812,0.126-16.616,0.235-26.405l-23.785,18.434c1.356,0.941,2.61,1.876,3.758,2.811c0.941,0.839,1.801,1.673,2.584,2.505
		c0.782,0.832,1.172,1.614,1.172,2.339v9.064c-5.424-5.416-9.932-9.789-13.535-13.126c-3.597-3.331-7.042-6.015-10.326-8.042
		c-3.286-2.033-6.806-3.725-10.562-5.078c-3.75-1.354-8.499-2.811-14.235-4.374l-3.444,11.875l10.173,6.4v59.524l-3.915,9.838
		h28.788c-0.935-0.624-1.718-1.46-2.343-2.506c-0.629-0.825-1.178-1.866-1.642-3.123c-0.472-1.248-0.707-2.646-0.707-4.209v-44.212
		l21.748,20.311v24.674C193.843,170.47,192.435,173.482,192.543,173.482z"/>
	<path d="M223.598,166.07c-0.573,1.397-1.229,2.671-1.955,3.814c-0.841,1.245-1.726,2.452-2.661,3.598h33.479
		c-1.667-1.146-3.126-2.353-4.379-3.598c-1.147-1.144-2.165-2.417-3.049-3.814c-0.893-1.424-1.332-2.848-1.332-4.296
		c0-9.688-0.024-17.877-0.076-24.535c-0.057-6.663-0.134-12.314-0.235-16.948c-0.109-4.633-0.185-8.46-0.236-11.479
		c-0.057-3.02-0.075-5.728-0.075-8.124c0-2.708,0.8-5.625,2.424-8.753c1.611-3.121,3.624-5.778,6.023-7.964h-34.422
		c2.399,2.085,4.228,4.71,5.474,7.888c1.255,3.178,1.878,6.07,1.878,8.671v61.245C224.457,163.223,224.172,164.646,223.598,166.07z"
		/>
	<polygon points="283.836,87.033 275.776,78.654 254.341,101.781 254.341,158.646 276.871,183.17 297.198,164.89 291.57,145.834 
		278.902,159.738 274.522,154.425 274.522,107.871 279.062,101.781 285.943,111.621 299.082,102.874 293.359,96.932 277.106,88.699 
			"/>
	<path d="M415.365,246.063c-1.949-3.622-3.466-7.424-4.521-11.467c-1.108-4.044-1.849-8.139-2.256-12.354
		c-0.469-4.187-0.659-8.218-0.659-12.08c0-2.669,0.035-5.162,0.126-7.45c0.064-2.264,0.205-4.221,0.369-5.899
		c0.164-1.857,0.433-3.61,0.776-5.286l-23.492-13.872l25.252-21.41V78.654h-37.856l10.847,16.631v43.07l-30.276,22.429V81.656
		l-31.017,30.955v114.165c0,3.535-0.664,6.98-2.027,10.336c-1.334,3.356-2.862,6.384-4.529,9.076
		c-1.854,3.025-4.045,5.962-6.554,8.812h57.024c-2.215-1.845-4.138-3.864-5.83-6.04c-1.527-1.855-2.828-3.99-4.026-6.432
		c-1.184-2.44-1.755-5.085-1.755-7.933c0-2.849-0.051-6.561-0.127-11.087c-0.076-4.525-0.219-8.976-0.368-13.348
		c-0.17-5.202-0.296-10.576-0.296-16.121l18.935,14.606c0,2.682,0.091,5.377,0.24,8.048c0.167,2.364,0.333,4.932,0.409,7.703
		c0.09,2.762,0.142,5.571,0.142,8.431c0,2.86,0.646,5.632,1.998,8.326c1.359,2.682,2.915,5.034,4.811,7.043
		c1.846,2.518,4.113,4.781,6.763,6.803h35.612C419.883,252.648,417.284,249.672,415.365,246.063z"/>
	<path d="M423.027,165.208c-0.61,1.485-1.284,2.836-2.061,4.04c-0.879,1.311-1.822,2.569-2.815,3.788h35.285
		c-1.746-1.219-3.299-2.478-4.612-3.788c-1.211-1.204-2.278-2.555-3.223-4.04c-0.913-1.477-1.398-2.988-1.398-4.526
		c0-10.195-0.027-18.816-0.078-25.846c-0.052-7.019-0.139-12.974-0.24-17.856c-0.115-4.882-0.191-8.912-0.242-12.097
		c-0.051-3.178-0.076-6.033-0.076-8.563c0-2.847,0.828-5.923,2.546-9.216c1.694-3.292,3.808-6.091,6.328-8.398h-36.249
		c2.52,2.2,4.459,4.966,5.768,8.315c1.311,3.351,1.987,6.395,1.987,9.134v64.526C423.946,162.22,423.629,163.731,423.027,165.208z"
		/>
	<path d="M497.947,173.036h26.549c-0.992-0.762-2.153-2.135-3.466-4.113c-1.31-1.988-1.96-4.072-1.96-6.258
		c0-5.709,0-11.495,0-17.367c0-5.873,0.025-12.216,0.076-19.018s0.114-14.323,0.166-22.549c0.051-8.231,0.127-17.512,0.241-27.82
		l-25.056,19.424c1.413,0.985,2.723,1.971,3.959,2.957c0.969,0.883,1.885,1.76,2.71,2.638c0.843,0.877,1.237,1.703,1.237,2.466
		v9.554c-5.717-5.708-10.466-10.316-14.246-13.832c-3.808-3.508-7.439-6.337-10.889-8.473c-3.465-2.143-7.168-3.929-11.141-5.353
		c-3.95-1.424-8.965-2.962-15-4.608l-3.628,12.509l10.708,6.745v62.728l-4.102,10.371h30.318c-0.994-0.659-1.795-1.55-2.471-2.643
		c-0.635-0.864-1.236-1.969-1.718-3.292c-0.51-1.313-0.75-2.801-0.75-4.437v-46.588l22.917,21.404v25.996
		C499.322,169.85,497.845,173.036,497.947,173.036z"/>
	<polygon points="558.617,126.114 558.617,138.293 570.319,138.293 572.473,143.238 558.617,154.096 553.525,148.998 
		553.69,107.845 559.128,100.605 567.367,112.282 583.017,101.756 555.322,72.782 529.462,100.605 529.462,152.62 556.631,181.911 
		582.363,157.072 600,181.266 584.834,126.61 	"/>
	<polygon points="308.499,231.174 308.499,189.261 0,189.261 	"/>
	<polygon points="294.538,64.919 290.884,51.686 290.89,51.679 322.389,60.355 327.957,37.929 341.669,64.919 600,64.919 92.555,0 
		133.299,64.919 	"/>
	<rect x="419.666" y="189.261" width="180.334" height="41.913"/>
	<path fill="#FFDE17" d="M355.84,79.495l-11.815-11.799l-6.048,6.04l-24.287,24.243l-6.775,6.763l11.811,11.799l3.934-3.93
		l31.017-30.955L355.84,79.495z M321.027,105.792l-0.716,4.411l-2.033-3.979l-4.425,0.691l3.177-3.164l-2.042-3.986l4,2.022
		l3.172-3.165l-0.713,4.436l4.012,2.022L321.027,105.792z M333.061,93.779l-0.727,4.43l-2.038-3.992l-4.429,0.699l3.184-3.172
		l-2.027-3.991l3.987,2.039l3.157-3.165l-0.689,4.41l4,2.042L333.061,93.779z M345.067,81.776l-0.7,4.425l-2.037-3.992l-4.417,0.692
		l3.155-3.158l-2.035-3.993l3.983,2.041l3.196-3.178l-0.712,4.431l3.996,2.026L345.067,81.776z"/>
	<polygon fill="#FFDE17" points="322.389,60.355 290.89,51.679 290.884,51.686 294.538,64.919 299.568,83.138 283.836,87.033 
		277.106,88.699 293.359,96.932 305.006,102.823 311.771,96.067 323.549,84.301 323.563,84.294 336.051,71.816 342.1,65.777 
		341.669,64.919 327.957,37.929 	"/>
</g>
</svg>
